# This file uses centimeters as units for non-parametric coordinates.

mtllib Wall_v1.mtl
g default
v -32.385605 -0.500000 32.385605
v 32.385605 -0.500000 32.385605
v -32.385605 13.613565 32.385605
v 32.385605 13.613565 32.385605
v -32.385605 13.613565 -32.385605
v 32.385605 13.613565 -32.385605
v -32.385605 -0.500000 -32.385605
v 32.385605 -0.500000 -32.385605
v -31.584612 13.613565 31.584612
v 31.584612 13.613565 31.584612
v 31.584612 13.613565 -31.584612
v -31.584612 13.613565 -31.584612
v -31.584612 -0.023560 31.584612
v 31.584612 -0.023560 31.584612
v 31.584612 -0.023560 -31.584612
v -31.584612 -0.023560 -31.584612
v -32.385605 -0.500001 32.385605
v 32.385605 -0.500001 32.385605
v 32.385605 10.587354 32.385605
v -32.385605 10.587354 32.385605
v -32.385578 10.587352 -32.385605
v 32.385578 10.587352 -32.385605
v 32.385578 -0.499998 -32.385605
v -32.385578 -0.499998 -32.385605
v 31.584599 10.587354 31.584612
v 31.584625 10.587354 -31.584612
v 31.584625 -0.023558 -31.584612
v 31.584599 -0.023558 31.584612
v -31.584612 10.587353 -31.584612
v -31.584612 -0.023560 -31.584612
v -31.584612 10.587353 31.584612
v -31.584612 -0.023560 31.584612
v 32.352268 3.423122 -4.983134
v 32.352268 3.423122 4.983134
v 32.352268 9.275165 -4.983134
v 32.352268 9.275165 4.983134
v 31.584364 9.275165 4.859900
v 31.584364 9.275165 -4.859900
v 31.584364 3.674593 -4.859900
v 31.584364 3.674593 4.859900
v 32.031322 3.506946 4.942055
v 32.031322 3.506946 -4.942055
v 32.031322 9.275164 -4.942055
v 32.031322 9.275164 4.942055
v 31.938890 3.590770 4.900977
v 31.938890 3.590770 -4.900977
v 31.938890 9.275164 -4.900977
v 31.938890 9.275164 4.900977
v -5.341037 9.526345 -32.368908
v 5.341037 9.526345 -32.368908
v 5.341037 2.976435 -32.368908
v -5.341037 2.976435 -32.368908
v -5.208923 9.526347 -31.599752
v 5.208928 9.526351 -31.599752
v -5.208923 3.257896 -31.599752
v 5.208928 3.257898 -31.599752
v 5.297000 9.526346 -32.018478
v 5.297000 3.070256 -32.018478
v -5.296999 3.070256 -32.018478
v -5.296999 9.526345 -32.018478
v 5.252964 9.526348 -31.951736
v 5.252964 3.164077 -31.951736
v -5.252960 3.164076 -31.951736
v -5.252960 9.526346 -31.951736
v -32.385536 3.485700 -4.866673
v -32.385544 3.485699 4.866673
v -32.385544 9.231233 4.866673
v -32.385536 9.231233 -4.866673
v -31.579859 9.231233 4.746265
v -31.579859 9.231233 -4.746265
v -31.579859 3.732595 4.746265
v -31.579859 3.732595 -4.746265
v -32.021378 3.567997 4.826537
v -32.021378 9.231233 4.826537
v -32.021374 9.231233 -4.826537
v -32.021374 3.567998 -4.826537
v -31.948837 3.650296 4.786401
v -31.948837 9.231233 4.786401
v -31.948835 9.231233 -4.786401
v -31.948835 3.650297 -4.786401
v -2.992525 -0.444442 32.385605
v 2.992525 -0.444442 32.385605
v 2.992525 10.123814 32.385605
v -2.992525 10.123814 32.385605
v -2.920714 10.123813 31.584612
v 2.920714 10.123813 31.584612
v 2.920714 -0.314416 31.584612
v -2.920714 -0.314416 31.584612
v 2.968588 -0.381987 32.118607
v 2.968588 10.123813 32.118607
v -2.968588 10.123813 32.118607
v -2.968588 -0.381987 32.118607
v 2.944651 -0.358652 31.851608
v 2.944651 10.123813 31.851608
v -2.944651 10.123813 31.851608
v -2.944651 -0.358652 31.851608
vt 0.345135 0.748011
vt 0.345135 0.501818
vt 0.345135 0.501818
vt 0.345135 0.693379
vt 0.292705 0.501818
vt 0.292705 0.501818
vt 0.834359 0.001992
vt 0.857542 0.001992
vt 0.857542 0.498182
vt 0.834359 0.498182
vt 0.824307 0.288261
vt 0.824307 0.211913
vt 0.749423 0.498182
vt 0.779476 0.288261
vt 0.749423 0.001992
vt 0.779476 0.211913
vt 0.690943 0.985736
vt 0.690943 0.501818
vt 0.690943 0.501818
vt 0.690943 0.985736
vt 0.719274 0.706547
vt 0.719274 0.781007
vt 0.772230 0.501818
vt 0.762178 0.706547
vt 0.772230 0.985736
vt 0.762178 0.781007
vt 0.795413 0.501818
vt 0.795413 0.985736
vt 0.552113 0.501818
vt 0.575296 0.501818
vt 0.575296 0.985736
vt 0.552113 0.985736
vt 0.541725 0.780136
vt 0.541725 0.707417
vt 0.470827 0.985736
vt 0.499602 0.780136
vt 0.470827 0.501818
vt 0.499602 0.707417
vt 0.185953 0.551995
vt 0.185953 0.503255
vt 0.188650 0.503974
vt 0.188650 0.551995
vt 0.185442 0.551995
vt 0.185442 0.502537
vt 0.182757 0.551995
vt 0.182757 0.501818
vt 0.173973 0.503255
vt 0.173973 0.551995
vt 0.171276 0.551995
vt 0.171276 0.503974
vt 0.174484 0.502537
vt 0.174484 0.551995
vt 0.177169 0.501818
vt 0.177169 0.551995
vt 0.801001 0.998008
vt 0.801001 0.501818
vt 0.831535 0.712631
vt 0.831535 0.787195
vt 0.885938 0.501818
vt 0.875549 0.712631
vt 0.885938 0.998008
vt 0.875549 0.787195
vt 0.909121 0.501818
vt 0.909121 0.998008
vt 0.254474 0.502475
vt 0.254474 0.582778
vt 0.252428 0.582778
vt 0.252428 0.502814
vt 0.256519 0.502296
vt 0.256519 0.582778
vt 0.258565 0.501818
vt 0.258565 0.582778
vt 0.244794 0.582778
vt 0.244794 0.502475
vt 0.246840 0.502814
vt 0.246840 0.582778
vt 0.242749 0.582778
vt 0.242749 0.502296
vt 0.240703 0.582778
vt 0.240703 0.501818
vt 0.001815 0.001992
vt 0.498005 0.001992
vt 0.491868 0.008128
vt 0.007951 0.008128
vt 0.498005 0.498182
vt 0.491868 0.492046
vt 0.001815 0.498182
vt 0.007951 0.492046
vt 0.742321 0.001992
vt 0.742321 0.498182
vt 0.742321 0.498182
vt 0.742321 0.001992
vt 0.864822 0.498182
vt 0.864822 0.001992
vt 0.864822 0.001992
vt 0.864822 0.498182
vt 0.231948 0.502447
vt 0.231948 0.577537
vt 0.229232 0.577222
vt 0.229232 0.502762
vt 0.232656 0.502133
vt 0.232656 0.577851
vt 0.235115 0.501818
vt 0.235115 0.578166
vt 0.220476 0.502447
vt 0.220476 0.577537
vt 0.217760 0.577222
vt 0.217760 0.502762
vt 0.221184 0.502133
vt 0.221184 0.577851
vt 0.223643 0.501818
vt 0.223643 0.578166
vt 0.278331 0.502493
vt 0.278331 0.582975
vt 0.275635 0.582638
vt 0.275635 0.502830
vt 0.278842 0.502155
vt 0.278842 0.583312
vt 0.281527 0.501818
vt 0.281527 0.583650
vt 0.267349 0.582975
vt 0.267349 0.502493
vt 0.270046 0.502830
vt 0.270046 0.582638
vt 0.266838 0.583312
vt 0.266838 0.502155
vt 0.264153 0.583650
vt 0.264153 0.501818
vt 0.209345 0.575767
vt 0.209345 0.502433
vt 0.212172 0.502740
vt 0.212172 0.575459
vt 0.208789 0.576074
vt 0.208789 0.502125
vt 0.205999 0.576382
vt 0.206000 0.501818
vt 0.197584 0.575767
vt 0.197584 0.502433
vt 0.200411 0.502740
vt 0.200411 0.575459
vt 0.197028 0.576074
vt 0.197028 0.502126
vt 0.194239 0.576382
vt 0.194239 0.501818
vt 0.161597 0.502185
vt 0.161597 0.547301
vt 0.159551 0.547117
vt 0.159551 0.502368
vt 0.163642 0.502001
vt 0.163642 0.547484
vt 0.165687 0.501818
vt 0.165687 0.547667
vt 0.151917 0.547301
vt 0.151917 0.502185
vt 0.153962 0.502368
vt 0.153962 0.547117
vt 0.149872 0.547484
vt 0.149872 0.502001
vt 0.147826 0.547667
vt 0.147826 0.501818
vt 0.504422 0.498182
vt 0.504422 0.001992
vt 0.504422 0.001992
vt 0.504422 0.498182
vt 0.596460 0.001992
vt 0.619642 0.001992
vt 0.619642 0.498182
vt 0.596460 0.498182
vt 0.592909 0.273012
vt 0.592909 0.227162
vt 0.511523 0.498182
vt 0.511949 0.273012
vt 0.511523 0.001992
vt 0.511949 0.227162
vt 0.735041 0.001992
vt 0.735041 0.498182
vt 0.735041 0.498182
vt 0.735041 0.001992
vt 0.708410 0.291003
vt 0.708410 0.209171
vt 0.650105 0.498182
vt 0.658233 0.291003
vt 0.650105 0.001992
vt 0.658233 0.209171
vt 0.626922 0.498182
vt 0.626922 0.001992
vt 0.287116 0.501818
vt 0.287116 0.606287
vt 0.287116 0.583105
vt 0.287116 0.501818
vt 0.662172 0.501818
vt 0.685354 0.501818
vt 0.685354 0.985736
vt 0.662172 0.985736
vt 0.654044 0.783681
vt 0.654044 0.703873
vt 0.580885 0.985736
vt 0.606023 0.783681
vt 0.580885 0.501818
vt 0.606023 0.703873
vt 0.580885 0.985736
vt 0.580885 0.501818
vt 0.139071 0.503102
vt 0.139071 0.546649
vt 0.136355 0.546649
vt 0.136355 0.503744
vt 0.139779 0.502460
vt 0.139779 0.546649
vt 0.142237 0.501818
vt 0.142237 0.546649
vt 0.127599 0.501818
vt 0.127599 0.545364
vt 0.124883 0.544722
vt 0.124883 0.501818
vt 0.128307 0.501818
vt 0.128307 0.546006
vt 0.130766 0.501818
vt 0.130766 0.546648
vt 0.116468 0.544572
vt 0.116468 0.501818
vt 0.119294 0.501818
vt 0.119294 0.543941
vt 0.115912 0.545202
vt 0.115912 0.501818
vt 0.113122 0.545833
vt 0.113122 0.501818
vt 0.104707 0.545833
vt 0.104707 0.503079
vt 0.107533 0.503709
vt 0.107533 0.545833
vt 0.104151 0.545833
vt 0.104151 0.502448
vt 0.101361 0.545833
vt 0.101361 0.501818
vt 0.358541 0.985736
vt 0.358541 0.501818
vt 0.385274 0.721402
vt 0.385274 0.766151
vt 0.463010 0.501818
vt 0.465238 0.721402
vt 0.463010 0.985736
vt 0.465238 0.766151
vt 0.352952 0.501818
vt 0.352952 0.985736
vt 0.350723 0.766151
vt 0.350723 0.721402
vn 0.000000 1.000000 0.000000
vn 0.000000 1.000000 0.000000
vn 0.000000 1.000000 0.000000
vn 0.000000 1.000000 0.000000
vn 0.000000 1.000000 0.000000
vn 0.000000 1.000000 0.000000
vn 0.000000 1.000000 0.000000
vn 0.000000 1.000000 0.000000
vn 0.000000 1.000000 0.000000
vn 0.000000 1.000000 0.000000
vn 0.000000 1.000000 0.000000
vn 0.000000 1.000000 0.000000
vn 0.000000 1.000000 0.000000
vn 0.000000 1.000000 0.000000
vn 0.000000 1.000000 0.000000
vn 0.000000 1.000000 0.000000
vn 0.000000 0.000000 -1.000000
vn 0.000000 0.000000 -1.000000
vn 0.000000 0.000000 -1.000000
vn 0.000000 0.000000 -1.000000
vn 0.000000 0.000000 1.000000
vn 0.000000 0.000000 1.000000
vn 0.000000 0.000000 1.000000
vn 0.000000 0.000000 1.000000
vn 0.000000 0.000000 1.000000
vn 0.000000 0.000000 1.000000
vn 0.000000 0.000000 -1.000000
vn 0.000000 0.000000 -1.000000
vn 0.000000 0.000000 -1.000000
vn 0.000000 0.000000 -1.000000
vn 0.008556 0.999963 0.000000
vn 0.008556 0.999963 0.000000
vn 0.008556 0.999963 0.000000
vn 0.008556 0.999963 0.000000
vn 0.999987 -0.005085 0.000000
vn 0.999987 -0.005085 0.000000
vn 0.999987 -0.005085 0.000000
vn 0.999987 -0.005085 0.000000
vn 0.999987 -0.005085 0.000000
vn 0.999987 -0.005085 0.000000
vn -0.008556 0.999963 0.000000
vn -0.008556 0.999963 0.000000
vn -0.008556 0.999963 0.000000
vn -0.008556 0.999963 0.000000
vn -1.000000 0.000000 -0.000000
vn -1.000000 0.000000 -0.000000
vn -1.000000 0.000000 -0.000000
vn -1.000000 0.000000 -0.000000
vn 0.176613 0.000000 0.984280
vn 0.000000 0.000000 0.000000
vn 0.176613 0.000000 0.984280
vn 0.176613 0.000000 0.984280
vn 0.000000 -0.002420 0.999997
vn 0.000000 -0.002420 0.999997
vn 0.000000 -0.002420 0.999997
vn 0.000000 -0.002420 0.999997
vn 0.000000 -0.002420 0.999997
vn 0.000000 -0.002420 0.999997
vn 0.000000 0.000000 1.000000
vn 0.000000 0.000000 1.000000
vn 0.000000 0.000000 1.000000
vn 0.000000 0.000000 1.000000
vn 1.000000 0.000718 0.000000
vn 1.000000 0.000718 0.000000
vn 1.000000 0.000718 0.000000
vn 1.000000 0.000718 0.000000
vn 1.000000 0.000718 0.000000
vn 1.000000 0.000718 0.000000
vn 0.000000 0.000000 0.000000
vn -1.000000 0.000000 0.000000
vn 0.000000 0.000000 0.000000
vn -1.000000 0.000000 0.000000
vn -1.000000 0.000000 0.000000
vn -1.000000 0.000000 0.000000
vn -1.000000 0.000000 0.000000
vn -1.000000 0.000000 0.000000
vn 0.999964 0.008494 0.000000
vn 0.999964 0.008494 0.000000
vn 0.999964 0.008494 0.000000
vn 0.999964 0.008494 0.000000
vn 0.999999 0.000000 0.001216
vn 0.999999 0.000000 0.001216
vn 0.999999 0.000000 0.001216
vn 0.999999 0.000000 0.001216
vn 0.999999 0.000000 -0.001216
vn 0.999999 0.000000 -0.001216
vn 0.999999 0.000000 -0.001216
vn 0.999999 0.000000 -0.001216
vn -1.000000 0.000038 -0.000000
vn -1.000000 0.000038 -0.000000
vn -1.000000 0.000038 -0.000000
vn -1.000000 0.000038 -0.000000
vn -1.000000 0.000038 -0.000000
vn -1.000000 0.000038 -0.000000
vn -1.000000 0.000000 -0.000010
vn -1.000000 0.000000 -0.000010
vn -1.000000 0.000000 -0.000010
vn -1.000000 0.000000 -0.000010
vn -1.000000 -0.000067 0.000000
vn -1.000000 -0.000067 0.000000
vn -1.000000 -0.000067 0.000000
vn -1.000000 -0.000067 0.000000
vn -1.000000 0.000000 0.000009
vn -1.000000 0.000000 0.000009
vn -1.000000 0.000000 0.000009
vn -1.000000 0.000000 0.000009
vn 0.354541 0.935040 0.000000
vn 0.354541 0.935040 0.000000
vn 0.230094 0.973168 0.000000
vn 0.230094 0.973168 0.000000
vn 0.356466 0.000000 0.934308
vn 0.181539 0.000000 0.983384
vn 0.115095 0.000000 0.993354
vn 0.115095 0.000000 0.993354
vn -0.000002 -1.000000 0.000000
vn -0.000002 -1.000000 0.000000
vn -0.000003 -1.000000 0.000000
vn -0.000003 -1.000000 0.000000
vn 0.181540 0.000000 -0.983384
vn 0.356467 0.000000 -0.934308
vn 0.115095 0.000000 -0.993354
vn 0.115095 0.000000 -0.993354
vn 0.252700 0.967545 0.000000
vn 0.252700 0.967545 0.000000
vn 0.372570 0.928004 0.000000
vn 0.372570 0.928004 0.000000
vn 0.126953 0.000000 0.991909
vn 0.126953 0.000000 0.991909
vn 0.194178 0.000000 0.980966
vn 0.128581 0.000000 0.991699
vn 0.000003 -1.000000 0.000000
vn 0.000003 -1.000000 0.000000
vn 0.000002 -1.000000 0.000000
vn 0.000002 -1.000000 0.000000
vn 0.126953 0.000000 -0.991909
vn 0.126953 0.000000 -0.991909
vn 0.128582 0.000000 -0.991699
vn 0.194178 0.000000 -0.980966
vn 0.372570 0.928004 0.000000
vn 0.372570 0.928004 0.000000
vn 0.354541 0.935040 0.000000
vn 0.354541 0.935040 0.000000
vn 0.128581 0.000000 0.991699
vn 0.194178 0.000000 0.980966
vn 0.181539 0.000000 0.983384
vn 0.356466 0.000000 0.934308
vn 0.000002 -1.000000 0.000000
vn 0.000002 -1.000000 0.000000
vn -0.000002 -1.000000 0.000000
vn -0.000002 -1.000000 0.000000
vn 0.194178 0.000000 -0.980966
vn 0.128582 0.000000 -0.991699
vn 0.356467 0.000000 -0.934308
vn 0.181540 0.000000 -0.983384
vn 0.000000 -0.002669 -0.999996
vn 0.000000 -0.002669 -0.999996
vn 0.000000 -0.002669 -0.999996
vn 0.000000 -0.002669 -0.999996
vn 0.000000 -0.002669 -0.999996
vn 0.000000 -0.002669 -0.999996
vn -0.000617 0.000000 -1.000000
vn -0.000617 0.000000 -1.000000
vn -0.000617 0.000000 -1.000000
vn -0.000617 0.000000 -1.000000
vn 0.000000 0.004803 -0.999988
vn 0.000000 0.004803 -0.999988
vn 0.000000 0.004803 -0.999988
vn 0.000000 0.004803 -0.999988
vn 0.000617 0.000000 -1.000000
vn 0.000617 0.000000 -1.000000
vn 0.000617 0.000000 -1.000000
vn 0.000617 0.000000 -1.000000
vn 0.000574 0.000000 1.000000
vn 0.000574 0.000000 1.000000
vn 0.000574 0.000000 1.000000
vn 0.000574 0.000000 1.000000
vn 0.000000 0.004614 0.999989
vn 0.000000 0.004614 0.999989
vn 0.000000 0.004614 0.999989
vn 0.000000 0.004614 0.999989
vn -0.000574 0.000000 1.000000
vn -0.000574 0.000000 1.000000
vn -0.000574 0.000000 1.000000
vn -0.000574 0.000000 1.000000
vn -0.978384 0.000000 -0.206795
vn -0.879847 0.000000 -0.475257
vn -0.992265 0.000000 -0.124140
vn -0.992265 0.000000 -0.124140
vn -0.000000 0.910680 -0.413112
vn -0.000000 0.910680 -0.413113
vn -0.000000 0.966264 -0.257555
vn -0.000000 0.966264 -0.257555
vn 0.879840 0.000000 -0.475269
vn 0.978379 0.000000 -0.206820
vn 0.992264 0.000000 -0.124146
vn 0.992264 0.000000 -0.124146
vn 0.000000 -1.000000 0.000006
vn 0.000000 -1.000000 0.000006
vn 0.000000 -1.000000 0.000004
vn 0.000000 -1.000000 0.000004
vn -0.992196 0.000000 -0.124685
vn -0.992196 0.000000 -0.124685
vn -0.992034 0.000000 -0.125973
vn -0.978632 0.000000 -0.205620
vn 0.000000 0.965979 -0.258620
vn 0.000000 0.965979 -0.258620
vn 0.000000 0.913821 -0.406116
vn 0.000000 0.913821 -0.406117
vn 0.992196 0.000000 -0.124690
vn 0.992196 0.000000 -0.124690
vn 0.978633 0.000000 -0.205613
vn 0.992033 0.000000 -0.125978
vn 0.000000 -1.000000 0.000006
vn 0.000000 -1.000000 0.000006
vn 0.000000 -1.000000 0.000007
vn 0.000000 -1.000000 0.000007
vn -0.978632 0.000000 -0.205620
vn -0.992034 0.000000 -0.125973
vn -0.879847 0.000000 -0.475257
vn -0.978384 0.000000 -0.206795
vn 0.000000 0.913821 -0.406117
vn 0.000000 0.913821 -0.406116
vn -0.000000 0.910680 -0.413113
vn -0.000000 0.910680 -0.413112
vn 0.992033 0.000000 -0.125978
vn 0.978633 0.000000 -0.205613
vn 0.978379 0.000000 -0.206820
vn 0.879840 0.000000 -0.475269
vn 0.000000 -1.000000 0.000007
vn 0.000000 -1.000000 0.000007
vn 0.000000 -1.000000 0.000006
vn 0.000000 -1.000000 0.000006
vn -1.000000 0.000013 -0.000000
vn -1.000000 0.000013 -0.000000
vn -1.000000 0.000013 -0.000000
vn -1.000000 0.000013 -0.000000
vn -1.000000 0.000000 -0.000002
vn -1.000000 0.000000 -0.000002
vn -1.000000 0.000000 -0.000002
vn -1.000000 0.000000 -0.000002
vn -1.000000 -0.000011 0.000000
vn -1.000000 -0.000011 0.000000
vn -1.000000 -0.000011 0.000000
vn -1.000000 -0.000011 0.000000
vn -1.000000 -0.000011 0.000000
vn -1.000000 -0.000011 0.000000
vn -1.000000 0.000000 0.000002
vn -1.000000 0.000000 0.000002
vn -1.000000 0.000000 0.000002
vn -1.000000 0.000000 0.000002
vn 1.000000 0.000000 0.000177
vn 1.000000 0.000000 0.000177
vn 1.000000 0.000000 0.000177
vn 1.000000 0.000000 0.000177
vn 0.999999 -0.001266 0.000000
vn 0.999999 -0.001266 0.000000
vn 0.999999 -0.001266 0.000000
vn 0.999999 -0.001266 0.000000
vn 1.000000 0.000000 -0.000177
vn 1.000000 0.000000 -0.000177
vn 1.000000 0.000000 -0.000177
vn 1.000000 0.000000 -0.000177
vn -0.404827 0.000000 -0.914393
vn -0.179737 0.000000 -0.983715
vn -0.108139 0.000000 -0.994136
vn -0.108139 0.000000 -0.994136
vn 0.000000 -1.000000 0.000000
vn 0.000000 -1.000000 0.000000
vn 0.000000 -1.000000 0.000000
vn 0.000000 -1.000000 0.000000
vn -0.179739 0.000000 0.983714
vn -0.404839 0.000000 0.914388
vn -0.108138 0.000000 0.994136
vn -0.108138 0.000000 0.994136
vn -0.353121 0.935578 -0.000000
vn -0.353122 0.935577 -0.000000
vn -0.217695 0.976017 0.000000
vn -0.217695 0.976017 0.000000
vn -0.109551 0.000000 -0.993981
vn -0.109551 0.000000 -0.993981
vn -0.179939 0.000000 -0.983678
vn -0.110892 0.000000 -0.993833
vn 0.000000 -1.000000 0.000000
vn 0.000000 -1.000000 0.000000
vn 0.000000 -1.000000 0.000000
vn 0.000000 -1.000000 0.000000
vn -0.109552 0.000000 0.993981
vn -0.109552 0.000000 0.993981
vn -0.110893 0.000000 0.993832
vn -0.179942 0.000000 0.983677
vn -0.220436 0.975401 -0.000000
vn -0.220436 0.975401 -0.000000
vn -0.348958 0.937138 -0.000000
vn -0.348958 0.937138 -0.000000
vn -0.110892 0.000000 -0.993833
vn -0.179939 0.000000 -0.983678
vn -0.179737 0.000000 -0.983715
vn -0.404827 0.000000 -0.914393
vn 0.000000 -1.000000 0.000000
vn 0.000000 -1.000000 0.000000
vn 0.000000 -1.000000 0.000000
vn 0.000000 -1.000000 0.000000
vn -0.179942 0.000000 0.983677
vn -0.110893 0.000000 0.993832
vn -0.404839 0.000000 0.914388
vn -0.179739 0.000000 0.983714
vn -0.348958 0.937138 -0.000000
vn -0.348958 0.937138 -0.000000
vn -0.353122 0.935577 -0.000000
vn -0.353121 0.935578 -0.000000
vn 0.000000 0.000000 1.000000
vn 0.000000 0.000000 1.000000
vn 0.000000 0.000000 1.000000
vn 0.000000 0.000000 1.000000
vn 0.000000 0.000000 1.000000
vn 0.000000 0.000000 1.000000
vn 0.000000 0.000000 1.000000
vn 0.000000 0.000000 1.000000
vn 0.000000 0.000000 1.000000
vn 0.000000 0.000000 1.000000
vn 0.000000 0.000000 1.000000
vn 0.000000 0.000000 1.000000
vn 0.000000 0.000000 -1.000000
vn 0.000000 0.000000 -1.000000
vn 0.000000 0.000000 -1.000000
vn 0.000000 0.000000 -1.000000
vn -0.000000 0.000000 -1.000000
vn -0.000000 0.000000 -1.000000
vn -0.000000 0.000000 -1.000000
vn -0.000000 0.000000 -1.000000
vn 0.000000 0.000000 1.000000
vn 0.000000 0.000000 1.000000
vn 0.000000 0.000000 1.000000
vn 0.000000 0.000000 1.000000
vn 0.000000 0.000000 -1.000000
vn 0.000000 0.000000 -1.000000
vn 0.000000 0.000000 -1.000000
vn 0.000000 0.000000 -1.000000
vn -0.996005 0.000000 0.089293
vn -0.996005 0.000000 0.089293
vn -0.996005 0.000000 0.089294
vn -0.996005 0.000000 0.089294
vn 0.000000 -1.000000 -0.000001
vn 0.000000 -1.000000 -0.000001
vn 0.000000 -1.000000 0.000000
vn 0.000000 -1.000000 0.000000
vn 0.996005 0.000000 0.089294
vn 0.996005 0.000000 0.089293
vn 0.996005 0.000000 0.089294
vn 0.996005 0.000000 0.089294
vn 0.000000 0.992209 0.124587
vn 0.000000 0.992209 0.124587
vn 0.000000 0.986552 0.163450
vn 0.000000 0.986552 0.163450
vn -0.996005 0.000000 0.089294
vn -0.996005 0.000000 0.089294
vn -0.996005 0.000000 0.089294
vn -0.996005 0.000000 0.089294
vn 0.000000 -1.000000 0.000002
vn 0.000000 -1.000000 0.000002
vn 0.000000 -1.000000 0.000000
vn 0.000000 -1.000000 0.000000
vn 0.996005 0.000000 0.089295
vn 0.996005 0.000000 0.089295
vn 0.996005 0.000000 0.089295
vn 0.996005 0.000000 0.089294
vn 0.000000 0.973716 0.227767
vn 0.000000 0.973716 0.227767
vn 0.000000 0.987078 0.160241
vn 0.000000 0.987078 0.160241
vn -0.996005 0.000000 0.089294
vn -0.996005 0.000000 0.089294
vn -0.996005 0.000000 0.089293
vn -0.996005 0.000000 0.089293
vn 0.000000 -1.000000 0.000000
vn 0.000000 -1.000000 0.000000
vn 0.000000 -1.000000 -0.000001
vn 0.000000 -1.000000 -0.000001
vn 0.996005 0.000000 0.089294
vn 0.996005 0.000000 0.089295
vn 0.996005 0.000000 0.089293
vn 0.996005 0.000000 0.089294
vn 0.000000 0.987078 0.160241
vn 0.000000 0.987078 0.160241
vn 0.000000 0.992209 0.124587
vn 0.000000 0.992209 0.124587
s off
g Wall_v1:pCube1
usemtl initialShadingGroup
f 3/81/1 4/82/2 10/83/3 9/84/4
f 4/82/5 6/85/6 11/86/7 10/83/8
f 6/85/9 5/87/10 12/88/11 11/86/12
f 5/87/13 3/81/14 9/84/15 12/88/16
f 1/161/17 2/162/18 18/163/19 17/164/20
f 19/165/21 4/166/22 3/167/23 20/168/24 84/169/25 83/170/26
f 8/175/27 7/176/28 24/177/29 23/178/30
f 2/89/31 8/90/32 23/91/33 18/92/34
f 22/7/35 6/8/36 4/9/37 19/10/38 36/11/39 35/12/40
f 7/93/41 1/94/42 17/95/43 24/96/44
f 15/17/45 14/18/46 28/19/47 27/20/48
f 14/187/49 10/188/50 25/189/51 28/190/52
f 26/191/53 11/192/54 12/193/55 29/194/56 53/195/57 54/196/58
f 16/201/59 15/202/60 27/199/61 30/197/62
f 29/29/63 12/30/64 9/31/65 31/32/66 69/33/67 70/34/68
f 9/1/69 13/2/70 32/3/71 31/4/72
f 13/2/73 16/5/74 30/6/75 32/3/76
f 18/13/77 23/15/78 33/16/79 34/14/80
f 23/15/81 22/7/82 35/12/83 33/16/84
f 19/10/85 18/13/86 34/14/87 36/11/88
f 26/25/89 38/26/90 37/24/91 25/23/92 10/27/93 11/28/94
f 26/25/95 27/20/96 39/22/97 38/26/98
f 27/20/99 28/19/100 40/21/101 39/22/102
f 28/19/103 25/23/104 37/24/105 40/21/106
f 45/97/107 46/98/108 39/99/109 40/100/110
f 46/203/111 47/204/112 38/205/113 39/206/114
f 47/105/115 48/106/116 37/107/117 38/108/118
f 48/211/119 45/212/120 40/213/121 37/214/122
f 34/103/123 33/104/124 42/102/125 41/101/126
f 33/209/127 35/210/128 43/208/129 42/207/130
f 35/111/131 36/112/132 44/110/133 43/109/134
f 36/217/135 34/218/136 41/216/137 44/215/138
f 41/101/139 42/102/140 46/98/141 45/97/142
f 42/207/143 43/208/144 47/204/145 46/203/146
f 43/109/147 44/110/148 48/106/149 47/105/150
f 44/215/151 41/216/152 45/212/153 48/211/154
f 22/183/155 50/184/156 49/182/157 21/181/158 5/185/159 6/186/160
f 22/183/161 23/178/162 51/180/163 50/184/164
f 23/178/165 24/177/166 52/179/167 51/180/168
f 24/177/169 21/181/170 49/182/171 52/179/172
f 29/194/173 30/197/174 55/198/175 53/195/176
f 30/197/177 27/199/178 56/200/179 55/198/180
f 27/199/181 26/191/182 54/196/183 56/200/184
f 61/39/185 62/40/186 56/41/187 54/42/188
f 62/113/189 63/114/190 55/115/191 56/116/192
f 63/47/193 64/48/194 53/49/195 55/50/196
f 64/121/197 61/122/198 54/123/199 53/124/200
f 50/45/201 51/46/202 58/44/203 57/43/204
f 51/119/205 52/120/206 59/118/207 58/117/208
f 52/53/209 49/54/210 60/52/211 59/51/212
f 49/127/213 50/128/214 57/126/215 60/125/216
f 57/43/217 58/44/218 62/40/219 61/39/220
f 58/117/221 59/118/222 63/114/223 62/113/224
f 59/51/225 60/52/226 64/48/227 63/47/228
f 60/125/229 57/126/230 61/122/231 64/121/232
f 24/55/233 17/56/234 66/57/235 65/58/236
f 17/56/237 20/59/238 67/60/239 66/57/240
f 21/61/241 68/62/242 67/60/243 20/59/244 3/63/245 5/64/246
f 21/61/247 24/55/248 65/58/249 68/62/250
f 31/32/251 32/35/252 71/36/253 69/33/254
f 32/35/255 30/37/256 72/38/257 71/36/258
f 30/37/259 29/29/260 70/34/261 72/38/262
f 77/219/263 78/220/264 69/221/265 71/222/266
f 78/129/267 79/130/268 70/131/269 69/132/270
f 79/227/271 80/228/272 72/229/273 70/230/274
f 80/137/275 77/138/276 71/139/277 72/140/278
f 66/225/279 67/226/280 74/224/281 73/223/282
f 67/135/283 68/136/284 75/134/285 74/133/286
f 68/233/287 65/234/288 76/232/289 75/231/290
f 65/143/291 66/144/292 73/142/293 76/141/294
f 73/223/295 74/224/296 78/220/297 77/219/298
f 74/133/299 75/134/300 79/130/301 78/129/302
f 75/231/303 76/232/304 80/228/305 79/227/306
f 76/141/307 73/142/308 77/138/309 80/137/310
f 17/171/311 18/173/312 82/174/313 81/172/314
f 18/173/315 19/165/316 83/170/317 82/174/318
f 20/168/319 17/171/320 81/172/321 84/169/322
f 9/235/323 10/236/324 86/237/325 85/238/326
f 10/236/327 14/239/328 87/240/329 86/237/330
f 14/243/331 13/244/332 88/245/333 87/246/334
f 13/241/335 9/235/336 85/238/337 88/242/338
f 93/65/339 94/66/340 86/67/341 87/68/342
f 94/145/343 95/146/344 85/147/345 86/148/346
f 95/73/347 96/74/348 88/75/349 85/76/350
f 96/153/351 93/154/352 87/155/353 88/156/354
f 82/71/355 83/72/356 90/70/357 89/69/358
f 83/151/359 84/152/360 91/150/361 90/149/362
f 84/79/363 81/80/364 92/78/365 91/77/366
f 81/159/367 82/160/368 89/158/369 92/157/370
f 89/69/371 90/70/372 94/66/373 93/65/374
f 90/149/375 91/150/376 95/146/377 94/145/378
f 91/77/379 92/78/380 96/74/381 95/73/382
f 92/157/383 89/158/384 93/154/385 96/153/386
