# This file uses centimeters as units for non-parametric coordinates.

mtllib Picture_frame_v1.mtl
g default
v 19.452997 10.292227 -31.596730
v 13.709135 11.271518 -31.596730
v 19.452997 10.292227 -31.344739
v 13.709135 11.271518 -31.344739
v 18.473706 4.548365 -31.344739
v 12.729844 5.527656 -31.344739
v 18.473706 4.548365 -31.596730
v 12.729844 5.527656 -31.596730
v 19.235882 10.138361 -31.442353
v 13.863000 11.054403 -31.442353
v 12.946959 5.681521 -31.442353
v 18.319840 4.765480 -31.442353
v 19.235882 10.138361 -31.487288
v 13.863000 11.054403 -31.487288
v 12.946959 5.681521 -31.487288
v 18.319840 4.765480 -31.487288
vt 0.637545 0.001879
vt 0.948014 0.001879
vt 0.948014 0.312350
vt 0.637545 0.312350
vt 0.687539 0.316342
vt 0.998008 0.316342
vt 0.998008 0.626813
vt 0.687539 0.626813
vt 0.183033 0.316342
vt 0.183033 0.626810
vt 0.062765 0.616784
vt 0.062765 0.326368
vt 0.007402 0.616784
vt 0.007402 0.326368
vt 0.361020 0.630802
vt 0.361020 0.941271
vt 0.240752 0.931245
vt 0.240752 0.640828
vt 0.185388 0.931245
vt 0.185388 0.640828
vt 0.368590 0.921218
vt 0.368590 0.630802
vt 0.659006 0.630802
vt 0.659006 0.921218
vt 0.370935 0.316342
vt 0.681404 0.316342
vt 0.681404 0.626810
vt 0.370935 0.626810
vt 0.001992 0.001879
vt 0.312461 0.001879
vt 0.312461 0.312350
vt 0.001992 0.312350
vt 0.319866 0.001879
vt 0.630335 0.001879
vt 0.630335 0.312350
vt 0.319866 0.312350
vt 0.189168 0.626811
vt 0.189168 0.316342
vt 0.309436 0.326368
vt 0.309436 0.616784
vt 0.364800 0.326368
vt 0.364800 0.616784
vt 0.177623 0.630802
vt 0.177623 0.941271
vt 0.057355 0.931244
vt 0.057355 0.640828
vt 0.001992 0.931244
vt 0.001992 0.640828
vn 0.168068 0.985775 0.000000
vn 0.168068 0.985775 0.000000
vn 0.168068 0.985775 0.000000
vn 0.168068 0.985775 0.000000
vn -0.000000 -0.000000 1.000000
vn -0.000000 -0.000000 1.000000
vn -0.000000 -0.000000 1.000000
vn -0.000000 -0.000000 1.000000
vn -0.168068 -0.985775 -0.000000
vn -0.168068 -0.985775 -0.000000
vn -0.168068 -0.985775 -0.000000
vn -0.168068 -0.985775 -0.000000
vn 0.000000 0.000000 -1.000000
vn 0.000000 0.000000 -1.000000
vn 0.000000 0.000000 -1.000000
vn 0.000000 0.000000 -1.000000
vn -0.985775 0.168068 -0.000000
vn -0.985775 0.168068 -0.000000
vn -0.985775 0.168068 -0.000000
vn -0.985775 0.168068 -0.000000
vn 0.985775 -0.168068 0.000000
vn 0.985775 -0.168068 0.000000
vn 0.985775 -0.168068 0.000000
vn 0.985775 -0.168068 0.000000
vn -0.077394 -0.453939 0.887665
vn -0.077394 -0.453939 0.887665
vn -0.077394 -0.453939 0.887665
vn -0.077394 -0.453939 0.887665
vn 0.453939 -0.077394 0.887665
vn 0.453939 -0.077394 0.887665
vn 0.453939 -0.077394 0.887665
vn 0.453939 -0.077394 0.887665
vn 0.077394 0.453939 0.887665
vn 0.077394 0.453939 0.887665
vn 0.077394 0.453939 0.887665
vn 0.077394 0.453939 0.887665
vn -0.453939 0.077394 0.887665
vn -0.453939 0.077394 0.887665
vn -0.453939 0.077394 0.887665
vn -0.453939 0.077394 0.887665
vn -0.168068 -0.985775 -0.000000
vn -0.168068 -0.985775 -0.000000
vn -0.168068 -0.985775 -0.000000
vn -0.168068 -0.985775 -0.000000
vn 0.985775 -0.168068 0.000000
vn 0.985775 -0.168068 0.000000
vn 0.985775 -0.168068 0.000000
vn 0.985775 -0.168068 0.000000
vn 0.168068 0.985775 0.000000
vn 0.168068 0.985775 0.000000
vn 0.168068 0.985775 0.000000
vn 0.168068 0.985775 0.000000
vn -0.985775 0.168068 -0.000000
vn -0.985775 0.168068 -0.000000
vn -0.985775 0.168068 -0.000000
vn -0.985775 0.168068 -0.000000
s off
g pCube40
usemtl initialShadingGroup
f 1/29/1 2/30/2 4/31/3 3/32/4
f 13/21/5 14/22/6 15/23/7 16/24/8
f 5/33/9 6/34/10 8/35/11 7/36/12
f 7/25/13 8/26/14 2/27/15 1/28/16
f 2/1/17 8/2/18 6/3/19 4/4/20
f 7/5/21 1/6/22 3/7/23 5/8/24
f 3/37/25 4/38/26 10/39/27 9/40/28
f 4/9/29 6/10/30 11/11/31 10/12/32
f 6/43/33 5/44/34 12/45/35 11/46/36
f 5/15/37 3/16/38 9/17/39 12/18/40
f 9/40/41 10/39/42 14/41/43 13/42/44
f 10/12/45 11/11/46 15/13/47 14/14/48
f 11/46/49 12/45/50 16/47/51 15/48/52
f 12/18/53 9/17/54 13/19/55 16/20/56
