# This file uses centimeters as units for non-parametric coordinates.

mtllib low poly.mtl
g default
v 0.022828 5.893013 -0.022207
v 0.012859 5.895208 -0.042239
v -0.002667 5.898625 -0.058138
v -0.022232 5.902931 -0.068345
v -0.043919 5.907705 -0.071862
v -0.065606 5.912478 -0.068345
v -0.085171 5.916785 -0.058138
v -0.100697 5.920202 -0.042239
v -0.110666 5.922396 -0.022207
v -0.114101 5.923152 0.000000
v -0.110666 5.922396 0.022207
v -0.100697 5.920202 0.042239
v -0.085171 5.916785 0.058138
v -0.065606 5.912478 0.068345
v -0.043919 5.907705 0.071862
v -0.022232 5.902931 0.068345
v -0.002667 5.898625 0.058138
v 0.012859 5.895208 0.042239
v 0.022828 5.893013 0.022207
v 0.026263 5.892258 0.000000
v 0.110666 6.292085 -0.022207
v 0.100697 6.294279 -0.042239
v 0.085171 6.297697 -0.058138
v 0.065606 6.302003 -0.068345
v 0.043919 6.306777 -0.071862
v 0.022232 6.311550 -0.068345
v 0.002667 6.315856 -0.058138
v -0.012859 6.319273 -0.042239
v -0.022828 6.321468 -0.022207
v -0.026263 6.322224 0.000000
v -0.022828 6.321468 0.022207
v -0.012859 6.319273 0.042239
v 0.002667 6.315856 0.058138
v 0.022232 6.311550 0.068345
v 0.043919 6.306777 0.071862
v 0.065606 6.302003 0.068345
v 0.085171 6.297697 0.058138
v 0.100697 6.294279 0.042239
v 0.110666 6.292085 0.022207
v 0.114101 6.291329 0.000000
v -0.043919 5.907705 0.000000
v 0.043919 6.306777 0.000000
v 1.755864 -0.075297 -0.570515
v 1.493627 -0.075297 -1.085183
v 1.085183 -0.075297 -1.493627
v 0.570515 -0.075297 -1.755864
v 0.000000 -0.075297 -1.846224
v -0.570515 -0.075297 -1.755863
v -1.085183 -0.075297 -1.493627
v -1.493626 -0.075297 -1.085183
v -1.755863 -0.075297 -0.570515
v -1.846224 -0.075297 0.000000
v -1.755863 -0.075297 0.570515
v -1.493626 -0.075297 1.085183
v -1.085183 -0.075297 1.493626
v -0.570515 -0.075297 1.755863
v -0.000000 -0.075297 1.846223
v 0.570514 -0.075297 1.755863
v 1.085183 -0.075297 1.493626
v 1.493626 -0.075297 1.085183
v 1.755863 -0.075297 0.570514
v 1.846223 -0.075297 0.000000
v 1.755864 6.168808 -0.570515
v 1.493627 6.168808 -1.085183
v 1.085183 6.168808 -1.493627
v 0.570515 6.168808 -1.755864
v 0.000000 6.168808 -1.846224
v -0.570515 6.168808 -1.755863
v -1.085183 6.168808 -1.493627
v -1.493626 6.168808 -1.085183
v -1.755863 6.168808 -0.570515
v -1.846224 6.168808 0.000000
v -1.755863 6.168808 0.570515
v -1.493626 6.168808 1.085183
v -1.085183 6.168808 1.493626
v -0.570515 6.168808 1.755863
v -0.000000 6.168808 1.846223
v 0.570514 6.168808 1.755863
v 1.085183 6.168808 1.493626
v 1.493626 6.168808 1.085183
v 1.755863 6.168808 0.570514
v 1.846223 6.168808 0.000000
v 0.000000 -0.075297 0.000000
v 1.463454 6.168808 -0.475505
v 1.244888 6.168808 -0.904464
v 0.904464 6.168808 -1.244888
v 0.475505 6.168808 -1.463454
v -0.000000 6.168808 -1.538767
v -0.475505 6.168808 -1.463454
v -0.904464 6.168808 -1.244888
v -1.244888 6.168808 -0.904464
v -1.463454 6.168808 -0.475505
v -1.538766 6.168808 -0.000000
v -1.463454 6.168808 0.475505
v -1.244888 6.168808 0.904464
v -0.904464 6.168808 1.244888
v -0.475505 6.168808 1.463454
v -0.000000 6.168808 1.538766
v 0.475505 6.168808 1.463453
v 0.904464 6.168808 1.244888
v 1.244888 6.168808 0.904464
v 1.463453 6.168808 0.475505
v 1.538766 6.168808 -0.000000
v 1.463454 5.928922 -0.475505
v 1.244888 5.928922 -0.904465
v -0.000000 5.928922 -0.000000
v 0.904464 5.928922 -1.244888
v 0.475505 5.928922 -1.463454
v -0.000000 5.928922 -1.538767
v -0.475505 5.928922 -1.463454
v -0.904464 5.928922 -1.244888
v -1.244888 5.928922 -0.904464
v -1.463454 5.928922 -0.475505
v -1.538766 5.928922 -0.000000
v -1.463454 5.928922 0.475505
v -1.244888 5.928922 0.904464
v -0.904464 5.928922 1.244888
v -0.475505 5.928922 1.463453
v -0.000000 5.928922 1.538766
v 0.475505 5.928922 1.463453
v 0.904464 5.928922 1.244888
v 1.244888 5.928922 0.904464
v 1.463453 5.928922 0.475505
v 1.538766 5.928922 -0.000000
vt 0.648603 0.107966
vt 0.626409 0.064408
vt 0.591842 0.029841
vt 0.548284 0.007647
vt 0.500000 -0.000000
vt 0.451716 0.007647
vt 0.408159 0.029841
vt 0.373591 0.064409
vt 0.351397 0.107966
vt 0.343750 0.156250
vt 0.351397 0.204534
vt 0.373591 0.248091
vt 0.408159 0.282659
vt 0.451716 0.304853
vt 0.500000 0.312500
vt 0.548284 0.304853
vt 0.591841 0.282659
vt 0.626409 0.248091
vt 0.648603 0.204534
vt 0.656250 0.156250
vt 0.375000 0.312500
vt 0.387500 0.312500
vt 0.400000 0.312500
vt 0.412500 0.312500
vt 0.425000 0.312500
vt 0.437500 0.312500
vt 0.450000 0.312500
vt 0.462500 0.312500
vt 0.475000 0.312500
vt 0.487500 0.312500
vt 0.500000 0.312500
vt 0.512500 0.312500
vt 0.525000 0.312500
vt 0.537500 0.312500
vt 0.550000 0.312500
vt 0.562500 0.312500
vt 0.575000 0.312500
vt 0.587500 0.312500
vt 0.600000 0.312500
vt 0.612500 0.312500
vt 0.625000 0.312500
vt 0.375000 0.688440
vt 0.387500 0.688440
vt 0.400000 0.688440
vt 0.412500 0.688440
vt 0.425000 0.688440
vt 0.437500 0.688440
vt 0.450000 0.688440
vt 0.462500 0.688440
vt 0.475000 0.688440
vt 0.487500 0.688440
vt 0.500000 0.688440
vt 0.512500 0.688440
vt 0.525000 0.688440
vt 0.537500 0.688440
vt 0.550000 0.688440
vt 0.562500 0.688440
vt 0.575000 0.688440
vt 0.587500 0.688440
vt 0.600000 0.688440
vt 0.612500 0.688440
vt 0.625000 0.688440
vt 0.648603 0.795466
vt 0.626409 0.751908
vt 0.591842 0.717341
vt 0.548284 0.695147
vt 0.500000 0.687500
vt 0.451716 0.695147
vt 0.408159 0.717341
vt 0.373591 0.751909
vt 0.351397 0.795466
vt 0.343750 0.843750
vt 0.351397 0.892034
vt 0.373591 0.935591
vt 0.408159 0.970159
vt 0.451716 0.992353
vt 0.500000 1.000000
vt 0.548284 0.992353
vt 0.591841 0.970159
vt 0.626409 0.935591
vt 0.648603 0.892034
vt 0.656250 0.843750
vt 0.500000 0.150000
vt 0.500000 0.837500
vt 0.375000 0.312500
vt 0.387500 0.312500
vt 0.387500 0.688440
vt 0.375000 0.688440
vt 0.400000 0.312500
vt 0.400000 0.688440
vt 0.412500 0.312500
vt 0.412500 0.688440
vt 0.425000 0.312500
vt 0.425000 0.688440
vt 0.437500 0.312500
vt 0.437500 0.688440
vt 0.450000 0.312500
vt 0.450000 0.688440
vt 0.462500 0.312500
vt 0.462500 0.688440
vt 0.475000 0.312500
vt 0.475000 0.688440
vt 0.487500 0.312500
vt 0.487500 0.688440
vt 0.500000 0.312500
vt 0.500000 0.688440
vt 0.512500 0.312500
vt 0.512500 0.688440
vt 0.525000 0.312500
vt 0.525000 0.688440
vt 0.537500 0.312500
vt 0.537500 0.688440
vt 0.550000 0.312500
vt 0.550000 0.688440
vt 0.562500 0.312500
vt 0.562500 0.688440
vt 0.575000 0.312500
vt 0.575000 0.688440
vt 0.587500 0.312500
vt 0.587500 0.688440
vt 0.600000 0.312500
vt 0.600000 0.688440
vt 0.612500 0.312500
vt 0.612500 0.688440
vt 0.625000 0.312500
vt 0.625000 0.688440
vt 0.626409 0.064408
vt 0.648603 0.107966
vt 0.500000 0.150000
vt 0.591842 0.029841
vt 0.548284 0.007647
vt 0.500000 -0.000000
vt 0.451716 0.007647
vt 0.408159 0.029841
vt 0.373591 0.064409
vt 0.351397 0.107966
vt 0.343750 0.156250
vt 0.351397 0.204534
vt 0.373591 0.248091
vt 0.408159 0.282659
vt 0.451716 0.304853
vt 0.500000 0.312500
vt 0.548284 0.304853
vt 0.591841 0.282659
vt 0.626409 0.248091
vt 0.648603 0.204534
vt 0.656250 0.156250
vt 0.648603 0.892034
vt 0.626409 0.935591
vt 0.500000 0.837500
vt 0.591841 0.970159
vt 0.548284 0.992353
vt 0.500000 1.000000
vt 0.451716 0.992353
vt 0.408159 0.970159
vt 0.373591 0.935591
vt 0.351397 0.892034
vt 0.343750 0.843750
vt 0.351397 0.795466
vt 0.373591 0.751909
vt 0.408159 0.717341
vt 0.451716 0.695147
vt 0.500000 0.687500
vt 0.548284 0.695147
vt 0.591842 0.717341
vt 0.626409 0.751908
vt 0.648603 0.795466
vt 0.656250 0.843750
vt 0.648603 0.892034
vt 0.626409 0.935591
vt 0.626409 0.935591
vt 0.648603 0.892034
vt 0.591841 0.970159
vt 0.591841 0.970159
vt 0.548284 0.992353
vt 0.548284 0.992353
vt 0.500000 1.000000
vt 0.500000 1.000000
vt 0.451716 0.992353
vt 0.451716 0.992353
vt 0.408159 0.970159
vt 0.408159 0.970159
vt 0.373591 0.935591
vt 0.373591 0.935591
vt 0.351397 0.892034
vt 0.351397 0.892034
vt 0.343750 0.843750
vt 0.343750 0.843750
vt 0.351397 0.795466
vt 0.351397 0.795466
vt 0.373591 0.751909
vt 0.373591 0.751909
vt 0.408159 0.717341
vt 0.408159 0.717341
vt 0.451716 0.695147
vt 0.451716 0.695147
vt 0.500000 0.687500
vt 0.500000 0.687500
vt 0.548284 0.695147
vt 0.548284 0.695147
vt 0.591842 0.717341
vt 0.591842 0.717341
vt 0.626409 0.751908
vt 0.626409 0.751908
vt 0.648603 0.795466
vt 0.648603 0.795466
vt 0.656250 0.843750
vt 0.656250 0.843750
vn 0.928824 -0.204440 -0.309015
vn 0.790105 -0.173907 -0.587784
vn 0.790105 -0.173907 -0.587784
vn 0.928824 -0.204440 -0.309015
vn 0.574046 -0.126351 -0.809016
vn 0.574046 -0.126351 -0.809016
vn 0.301792 -0.066426 -0.951057
vn 0.301792 -0.066426 -0.951057
vn 0.000001 -0.000000 -1.000000
vn -0.000000 0.000000 -1.000000
vn -0.301793 0.066426 -0.951057
vn -0.301792 0.066426 -0.951057
vn -0.574045 0.126351 -0.809017
vn -0.574044 0.126351 -0.809017
vn -0.790105 0.173907 -0.587784
vn -0.790105 0.173907 -0.587784
vn -0.928822 0.204439 -0.309021
vn -0.928822 0.204439 -0.309021
vn -0.976623 0.214961 0.000000
vn -0.976623 0.214961 -0.000000
vn -0.928823 0.204440 0.309018
vn -0.928823 0.204440 0.309018
vn -0.790108 0.173908 0.587780
vn -0.790108 0.173908 0.587780
vn -0.574046 0.126351 0.809016
vn -0.574046 0.126351 0.809016
vn -0.301792 0.066426 0.951057
vn -0.301792 0.066426 0.951057
vn 0.000001 -0.000000 1.000000
vn -0.000000 -0.000000 1.000000
vn 0.301791 -0.066426 0.951057
vn 0.301792 -0.066426 0.951057
vn 0.574044 -0.126351 0.809017
vn 0.574045 -0.126351 0.809017
vn 0.790105 -0.173907 0.587784
vn 0.790105 -0.173907 0.587784
vn 0.928823 -0.204440 0.309018
vn 0.928823 -0.204440 0.309018
vn 0.976623 -0.214961 0.000003
vn 0.976623 -0.214961 0.000003
vn -0.214960 -0.976623 -0.000009
vn -0.214960 -0.976623 -0.000000
vn -0.214959 -0.976623 0.000003
vn -0.214951 -0.976625 0.000009
vn -0.214954 -0.976624 0.000000
vn -0.214964 -0.976622 0.000000
vn -0.214964 -0.976622 0.000009
vn -0.214963 -0.976622 0.000028
vn -0.214960 -0.976623 0.000019
vn -0.214960 -0.976623 0.000000
vn -0.214962 -0.976622 0.000000
vn -0.214960 -0.976623 0.000000
vn -0.214960 -0.976623 -0.000009
vn -0.214963 -0.976622 -0.000009
vn -0.214964 -0.976622 -0.000005
vn -0.214964 -0.976622 0.000004
vn -0.214954 -0.976624 0.000009
vn -0.214951 -0.976625 0.000000
vn -0.214961 -0.976623 0.000000
vn -0.214960 -0.976623 0.000000
vn -0.214956 -0.976624 0.000019
vn 0.214959 0.976623 -0.000019
vn 0.214960 0.976623 -0.000019
vn 0.214959 0.976623 -0.000006
vn 0.214963 0.976622 0.000000
vn 0.214964 0.976622 0.000000
vn 0.214964 0.976622 0.000000
vn 0.214954 0.976624 -0.000019
vn 0.214951 0.976625 -0.000000
vn 0.214961 0.976623 -0.000000
vn 0.214960 0.976623 0.000019
vn 0.214956 0.976624 0.000000
vn 0.214960 0.976623 -0.000037
vn 0.214960 0.976623 0.000000
vn 0.214951 0.976625 0.000000
vn 0.214954 0.976624 -0.000009
vn 0.214964 0.976622 -0.000013
vn 0.214964 0.976622 0.000005
vn 0.214963 0.976622 -0.000009
vn 0.214960 0.976623 -0.000000
vn 0.214960 0.976623 0.000000
vn 0.214962 0.976622 -0.000019
vn 0.951057 0.000000 -0.309016
vn 0.809017 0.000000 -0.587785
vn 0.809017 0.000000 -0.587785
vn 0.951057 0.000000 -0.309016
vn 0.587785 0.000000 -0.809017
vn 0.587785 0.000000 -0.809017
vn 0.309017 0.000000 -0.951057
vn 0.309017 0.000000 -0.951057
vn 0.000000 0.000000 -1.000000
vn 0.000000 0.000000 -1.000000
vn -0.309017 0.000000 -0.951057
vn -0.309017 0.000000 -0.951057
vn -0.587785 0.000000 -0.809017
vn -0.587785 0.000000 -0.809017
vn -0.809017 0.000000 -0.587785
vn -0.809017 0.000000 -0.587785
vn -0.951057 0.000000 -0.309017
vn -0.951057 0.000000 -0.309017
vn -1.000000 0.000000 0.000000
vn -1.000000 0.000000 0.000000
vn -0.951057 0.000000 0.309017
vn -0.951057 0.000000 0.309017
vn -0.809017 0.000000 0.587785
vn -0.809017 0.000000 0.587785
vn -0.587785 0.000000 0.809017
vn -0.587785 0.000000 0.809017
vn -0.309017 0.000000 0.951057
vn -0.309017 0.000000 0.951057
vn 0.000000 0.000000 1.000000
vn 0.000000 0.000000 1.000000
vn 0.309017 0.000000 0.951057
vn 0.309017 0.000000 0.951057
vn 0.587785 0.000000 0.809017
vn 0.587785 0.000000 0.809017
vn 0.809017 0.000000 0.587785
vn 0.809017 0.000000 0.587785
vn 0.951057 0.000000 0.309017
vn 0.951057 0.000000 0.309017
vn 1.000000 0.000000 0.000001
vn 1.000000 0.000000 0.000001
vn 0.000000 -1.000000 0.000000
vn 0.000000 -1.000000 -0.000000
vn 0.000000 -1.000000 -0.000000
vn 0.000000 -1.000000 0.000000
vn 0.000000 -1.000000 -0.000000
vn 0.000000 -1.000000 0.000000
vn 0.000000 -1.000000 0.000000
vn 0.000000 -1.000000 -0.000000
vn 0.000000 -1.000000 -0.000000
vn 0.000000 -1.000000 0.000000
vn 0.000000 -1.000000 0.000000
vn 0.000000 -1.000000 0.000000
vn 0.000000 -1.000000 0.000000
vn 0.000000 -1.000000 0.000000
vn 0.000000 -1.000000 -0.000000
vn 0.000000 -1.000000 -0.000000
vn 0.000000 -1.000000 -0.000000
vn 0.000000 -1.000000 0.000000
vn 0.000000 -1.000000 0.000000
vn 0.000000 -1.000000 0.000000
vn 0.000000 -1.000000 -0.000000
vn 0.000000 1.000000 0.000001
vn 0.000000 1.000000 0.000001
vn 0.000000 1.000000 0.000000
vn 0.000000 1.000000 0.000000
vn 0.000000 1.000000 -0.000001
vn 0.000000 1.000000 0.000000
vn 0.000000 1.000000 0.000000
vn 0.000000 1.000000 -0.000001
vn 0.000000 1.000000 -0.000000
vn 0.000000 1.000000 0.000001
vn 0.000000 1.000000 0.000000
vn 0.000000 1.000000 0.000000
vn 0.000000 1.000000 0.000001
vn 0.000000 1.000000 0.000001
vn 0.000000 1.000000 0.000000
vn 0.000000 1.000000 0.000000
vn 0.000000 1.000000 0.000000
vn 0.000000 1.000000 -0.000000
vn 0.000000 1.000000 -0.000001
vn 0.000000 1.000000 -0.000001
vn 0.000000 1.000000 0.000001
vn 0.000000 1.000000 0.000000
vn 0.000000 1.000000 0.000000
vn 0.000000 1.000000 0.000000
vn 0.000000 1.000000 0.000000
vn 0.000000 1.000000 -0.000001
vn 0.000000 1.000000 -0.000001
vn 0.000000 1.000000 -0.000001
vn 0.000000 1.000000 -0.000001
vn 0.000000 1.000000 0.000001
vn 0.000000 1.000000 0.000001
vn 0.000000 1.000000 0.000001
vn 0.000000 1.000000 0.000001
vn 0.000000 1.000000 0.000001
vn 0.000000 1.000000 0.000001
vn 0.000000 1.000000 0.000001
vn 0.000000 1.000000 0.000001
vn 0.000000 1.000000 0.000000
vn 0.000000 1.000000 0.000000
vn 0.000000 1.000000 0.000000
vn 0.000000 1.000000 0.000000
vn 0.000000 1.000000 0.000000
vn 0.000000 1.000000 0.000000
vn 0.000000 1.000000 0.000000
vn 0.000000 1.000000 0.000000
vn 0.000000 1.000000 0.000001
vn 0.000000 1.000000 0.000001
vn 0.000000 1.000000 0.000001
vn 0.000000 1.000000 0.000001
vn 0.000000 1.000000 0.000001
vn 0.000000 1.000000 0.000001
vn 0.000000 1.000000 0.000001
vn 0.000000 1.000000 0.000001
vn 0.000000 1.000000 0.000000
vn 0.000000 1.000000 0.000000
vn 0.000000 1.000000 0.000000
vn 0.000000 1.000000 0.000000
vn 0.000000 1.000000 0.000001
vn 0.000000 1.000000 0.000001
vn 0.000000 1.000000 0.000001
vn 0.000000 1.000000 0.000001
vn 0.000000 1.000000 -0.000001
vn 0.000000 1.000000 -0.000001
vn 0.000000 1.000000 -0.000001
vn 0.000000 1.000000 -0.000001
vn 0.000000 1.000000 0.000000
vn 0.000000 1.000000 0.000000
vn 0.000000 1.000000 0.000000
vn 0.000000 1.000000 0.000000
vn 0.000000 1.000000 0.000001
vn 0.000000 1.000000 0.000001
vn 0.000000 1.000000 0.000001
vn 0.000000 1.000000 0.000001
vn 0.000000 1.000000 0.000000
vn 0.000000 1.000000 0.000000
vn 0.000000 1.000000 0.000000
vn 0.000000 1.000000 0.000000
vn 0.000000 1.000000 0.000000
vn 0.000000 1.000000 0.000000
vn 0.000000 1.000000 0.000000
vn 0.000000 1.000000 0.000000
vn 0.000000 1.000000 0.000000
vn 0.000000 1.000000 0.000000
vn 0.000000 1.000000 0.000000
vn 0.000000 1.000000 0.000000
vn 0.000000 1.000000 0.000000
vn 0.000000 1.000000 0.000000
vn 0.000000 1.000000 0.000000
vn 0.000000 1.000000 0.000000
vn 0.000000 1.000000 -0.000001
vn 0.000000 1.000000 -0.000001
vn 0.000000 1.000000 -0.000001
vn 0.000000 1.000000 -0.000001
vn 0.000000 1.000000 0.000000
vn 0.000000 1.000000 0.000000
vn 0.000000 1.000000 0.000000
vn 0.000000 1.000000 0.000000
vn 0.000000 1.000000 0.000001
vn 0.000000 1.000000 0.000001
vn 0.000000 1.000000 0.000001
vn 0.000000 1.000000 0.000001
vn -0.951057 0.000000 0.309016
vn -0.809017 -0.000000 0.587785
vn -0.809017 -0.000000 0.587785
vn -0.951057 0.000000 0.309016
vn -0.587785 0.000000 0.809017
vn -0.587785 0.000000 0.809017
vn -0.309017 0.000000 0.951057
vn -0.309017 0.000000 0.951057
vn 0.000000 0.000000 1.000000
vn 0.000000 0.000000 1.000000
vn 0.309017 0.000000 0.951057
vn 0.309017 0.000000 0.951057
vn 0.587786 0.000001 0.809017
vn 0.587786 0.000001 0.809017
vn 0.809017 0.000001 0.587785
vn 0.809017 0.000001 0.587785
vn 0.951056 0.000000 0.309017
vn 0.951056 0.000000 0.309017
vn 1.000000 0.000000 0.000000
vn 1.000000 0.000000 0.000000
vn 0.951056 0.000000 -0.309017
vn 0.951056 0.000000 -0.309017
vn 0.809017 0.000000 -0.587785
vn 0.809017 0.000000 -0.587785
vn 0.587785 0.000000 -0.809017
vn 0.587785 0.000000 -0.809017
vn 0.309017 0.000000 -0.951057
vn 0.309017 0.000000 -0.951057
vn -0.000000 0.000000 -1.000000
vn -0.000000 0.000000 -1.000000
vn -0.309017 0.000000 -0.951057
vn -0.309017 0.000000 -0.951057
vn -0.587785 -0.000000 -0.809017
vn -0.587785 -0.000000 -0.809017
vn -0.809017 -0.000000 -0.587785
vn -0.809017 -0.000000 -0.587785
vn -0.951057 0.000000 -0.309017
vn -0.951057 0.000000 -0.309017
vn -1.000000 0.000000 -0.000001
vn -1.000000 0.000000 -0.000001
s 1
g pCylinder5
usemtl initialShadingGroup
f 1/21/1 2/22/2 22/43/3 21/42/4
f 2/22/2 3/23/5 23/44/6 22/43/3
f 3/23/5 4/24/7 24/45/8 23/44/6
f 4/24/7 5/25/9 25/46/10 24/45/8
f 5/25/9 6/26/11 26/47/12 25/46/10
f 6/26/11 7/27/13 27/48/14 26/47/12
f 7/27/13 8/28/15 28/49/16 27/48/14
f 8/28/15 9/29/17 29/50/18 28/49/16
f 9/29/17 10/30/19 30/51/20 29/50/18
f 10/30/19 11/31/21 31/52/22 30/51/20
f 11/31/21 12/32/23 32/53/24 31/52/22
f 12/32/23 13/33/25 33/54/26 32/53/24
f 13/33/25 14/34/27 34/55/28 33/54/26
f 14/34/27 15/35/29 35/56/30 34/55/28
f 15/35/29 16/36/31 36/57/32 35/56/30
f 16/36/31 17/37/33 37/58/34 36/57/32
f 17/37/33 18/38/35 38/59/36 37/58/34
f 18/38/35 19/39/37 39/60/38 38/59/36
f 19/39/37 20/40/39 40/61/40 39/60/38
f 20/40/39 1/41/1 21/62/4 40/61/40
s 2
f 2/2/41 1/1/42 41/83/43
f 3/3/44 2/2/41 41/83/43
f 4/4/45 3/3/44 41/83/43
f 5/5/46 4/4/45 41/83/43
f 6/6/47 5/5/46 41/83/43
f 7/7/48 6/6/47 41/83/43
f 8/8/49 7/7/48 41/83/43
f 9/9/50 8/8/49 41/83/43
f 10/10/51 9/9/50 41/83/43
f 11/11/52 10/10/51 41/83/43
f 12/12/53 11/11/52 41/83/43
f 13/13/54 12/12/53 41/83/43
f 14/14/55 13/13/54 41/83/43
f 15/15/56 14/14/55 41/83/43
f 16/16/57 15/15/56 41/83/43
f 17/17/58 16/16/57 41/83/43
f 18/18/59 17/17/58 41/83/43
f 19/19/60 18/18/59 41/83/43
f 20/20/61 19/19/60 41/83/43
f 1/1/42 20/20/61 41/83/43
s 3
f 21/81/62 22/80/63 42/84/64
f 22/80/63 23/79/65 42/84/64
f 23/79/65 24/78/66 42/84/64
f 24/78/66 25/77/67 42/84/64
f 25/77/67 26/76/68 42/84/64
f 26/76/68 27/75/69 42/84/64
f 27/75/69 28/74/70 42/84/64
f 28/74/70 29/73/71 42/84/64
f 29/73/71 30/72/72 42/84/64
f 30/72/72 31/71/73 42/84/64
f 31/71/73 32/70/74 42/84/64
f 32/70/74 33/69/75 42/84/64
f 33/69/75 34/68/76 42/84/64
f 34/68/76 35/67/77 42/84/64
f 35/67/77 36/66/78 42/84/64
f 36/66/78 37/65/79 42/84/64
f 37/65/79 38/64/80 42/84/64
f 38/64/80 39/63/81 42/84/64
f 39/63/81 40/82/82 42/84/64
f 40/82/82 21/81/62 42/84/64
s 4
f 43/85/83 44/86/84 64/87/85 63/88/86
f 44/86/84 45/89/87 65/90/88 64/87/85
f 45/89/87 46/91/89 66/92/90 65/90/88
f 46/91/89 47/93/91 67/94/92 66/92/90
f 47/93/91 48/95/93 68/96/94 67/94/92
f 48/95/93 49/97/95 69/98/96 68/96/94
f 49/97/95 50/99/97 70/100/98 69/98/96
f 50/99/97 51/101/99 71/102/100 70/100/98
f 51/101/99 52/103/101 72/104/102 71/102/100
f 52/103/101 53/105/103 73/106/104 72/104/102
f 53/105/103 54/107/105 74/108/106 73/106/104
f 54/107/105 55/109/107 75/110/108 74/108/106
f 55/109/107 56/111/109 76/112/110 75/110/108
f 56/111/109 57/113/111 77/114/112 76/112/110
f 57/113/111 58/115/113 78/116/114 77/114/112
f 58/115/113 59/117/115 79/118/116 78/116/114
f 59/117/115 60/119/117 80/120/118 79/118/116
f 60/119/117 61/121/119 81/122/120 80/120/118
f 61/121/119 62/123/121 82/124/122 81/122/120
f 62/123/121 43/125/83 63/126/86 82/124/122
s 5
f 44/127/123 43/128/124 83/129/125
f 45/130/126 44/127/123 83/129/125
f 46/131/127 45/130/126 83/129/125
f 47/132/128 46/131/127 83/129/125
f 48/133/129 47/132/128 83/129/125
f 49/134/130 48/133/129 83/129/125
f 50/135/131 49/134/130 83/129/125
f 51/136/132 50/135/131 83/129/125
f 52/137/133 51/136/132 83/129/125
f 53/138/134 52/137/133 83/129/125
f 54/139/135 53/138/134 83/129/125
f 55/140/136 54/139/135 83/129/125
f 56/141/137 55/140/136 83/129/125
f 57/142/138 56/141/137 83/129/125
f 58/143/139 57/142/138 83/129/125
f 59/144/140 58/143/139 83/129/125
f 60/145/141 59/144/140 83/129/125
f 61/146/142 60/145/141 83/129/125
f 62/147/143 61/146/142 83/129/125
f 43/128/124 62/147/143 83/129/125
s 6
f 104/148/144 105/149/145 106/150/146
f 105/149/145 107/151/147 106/150/146
f 107/151/147 108/152/148 106/150/146
f 108/152/148 109/153/149 106/150/146
f 109/153/149 110/154/150 106/150/146
f 110/154/150 111/155/151 106/150/146
f 111/155/151 112/156/152 106/150/146
f 112/156/152 113/157/153 106/150/146
f 113/157/153 114/158/154 106/150/146
f 114/158/154 115/159/155 106/150/146
f 115/159/155 116/160/156 106/150/146
f 116/160/156 117/161/157 106/150/146
f 117/161/157 118/162/158 106/150/146
f 118/162/158 119/163/159 106/150/146
f 119/163/159 120/164/160 106/150/146
f 120/164/160 121/165/161 106/150/146
f 121/165/161 122/166/162 106/150/146
f 122/166/162 123/167/163 106/150/146
f 123/167/163 124/168/164 106/150/146
f 124/168/164 104/148/144 106/150/146
s off
f 63/169/165 64/170/166 85/171/167 84/172/168
f 64/170/169 65/173/170 86/174/171 85/171/172
f 65/173/173 66/175/174 87/176/175 86/174/176
f 66/175/177 67/177/178 88/178/179 87/176/180
f 67/177/181 68/179/182 89/180/183 88/178/184
f 68/179/185 69/181/186 90/182/187 89/180/188
f 69/181/189 70/183/190 91/184/191 90/182/192
f 70/183/193 71/185/194 92/186/195 91/184/196
f 71/185/197 72/187/198 93/188/199 92/186/200
f 72/187/201 73/189/202 94/190/203 93/188/204
f 73/189/205 74/191/206 95/192/207 94/190/208
f 74/191/209 75/193/210 96/194/211 95/192/212
f 75/193/213 76/195/214 97/196/215 96/194/216
f 76/195/217 77/197/218 98/198/219 97/196/220
f 77/197/221 78/199/222 99/200/223 98/198/224
f 78/199/225 79/201/226 100/202/227 99/200/228
f 79/201/229 80/203/230 101/204/231 100/202/232
f 80/203/233 81/205/234 102/206/235 101/204/236
f 81/205/237 82/207/238 103/208/239 102/206/240
f 82/207/241 63/169/242 84/172/243 103/208/244
s 7
f 84/172/245 85/171/246 105/149/247 104/148/248
f 85/171/246 86/174/249 107/151/250 105/149/247
f 86/174/249 87/176/251 108/152/252 107/151/250
f 87/176/251 88/178/253 109/153/254 108/152/252
f 88/178/253 89/180/255 110/154/256 109/153/254
f 89/180/255 90/182/257 111/155/258 110/154/256
f 90/182/257 91/184/259 112/156/260 111/155/258
f 91/184/259 92/186/261 113/157/262 112/156/260
f 92/186/261 93/188/263 114/158/264 113/157/262
f 93/188/263 94/190/265 115/159/266 114/158/264
f 94/190/265 95/192/267 116/160/268 115/159/266
f 95/192/267 96/194/269 117/161/270 116/160/268
f 96/194/269 97/196/271 118/162/272 117/161/270
f 97/196/271 98/198/273 119/163/274 118/162/272
f 98/198/273 99/200/275 120/164/276 119/163/274
f 99/200/275 100/202/277 121/165/278 120/164/276
f 100/202/277 101/204/279 122/166/280 121/165/278
f 101/204/279 102/206/281 123/167/282 122/166/280
f 102/206/281 103/208/283 124/168/284 123/167/282
f 103/208/283 84/172/245 104/148/248 124/168/284
