# This file uses centimeters as units for non-parametric coordinates.

mtllib Base_wall_setup.mtl
g default
v -32.385605 -0.500000 32.385605
v 32.385605 -0.500000 32.385605
v -32.385605 13.613565 32.385605
v 32.385605 13.613565 32.385605
v -32.385605 13.613565 -32.385605
v 32.385605 13.613565 -32.385605
v -32.385605 -0.500000 -32.385605
v 32.385605 -0.500000 -32.385605
v -31.584612 13.613565 31.584612
v 31.584612 13.613565 31.584612
v 31.584612 13.613565 -31.584612
v -31.584612 13.613565 -31.584612
v -31.584612 -0.023560 31.584612
v 31.584612 -0.023560 31.584612
v 31.584612 -0.023560 -31.584612
v -31.584612 -0.023560 -31.584612
v -32.385605 -0.500001 32.385605
v 32.385605 -0.500001 32.385605
v 32.385605 10.587354 32.385605
v -32.385605 10.587354 32.385605
v -32.385579 10.587352 -32.385605
v 32.385579 10.587352 -32.385605
v 32.385579 -0.499998 -32.385605
v -32.385579 -0.499998 -32.385605
v 31.584599 10.587354 31.584612
v 31.584625 10.587354 -31.584612
v 31.584625 -0.023558 -31.584612
v 31.584599 -0.023558 31.584612
v -31.584612 10.587353 -31.584612
v -31.584612 -0.023560 -31.584612
v -31.584612 10.587353 31.584612
v -31.584612 -0.023560 31.584612
v 32.352270 3.423122 -4.983134
v 32.352270 3.423122 4.983134
v 32.352270 9.275165 -4.983134
v 32.352270 9.275165 4.983134
v 31.584363 9.275165 4.859900
v 31.584363 9.275165 -4.859900
v 31.584363 3.674593 -4.859900
v 31.584363 3.674593 4.859900
v 32.031323 3.506946 4.942055
v 32.031323 3.506946 -4.942055
v 32.031323 9.275164 -4.942055
v 32.031323 9.275164 4.942055
v 31.938891 3.590770 4.900977
v 31.938891 3.590770 -4.900977
v 31.938891 9.275164 -4.900977
v 31.938891 9.275164 4.900977
v -5.341037 9.526345 -32.368909
v 5.341037 9.526345 -32.368909
v 5.341037 2.976435 -32.368909
v -5.341037 2.976435 -32.368909
v -5.208923 9.526347 -31.599752
v 5.208928 9.526351 -31.599752
v -5.208923 3.257896 -31.599752
v 5.208928 3.257898 -31.599752
v 5.297000 9.526346 -32.018478
v 5.297000 3.070256 -32.018478
v -5.296999 3.070256 -32.018478
v -5.296999 9.526345 -32.018478
v 5.252964 9.526348 -31.951736
v 5.252964 3.164077 -31.951736
v -5.252960 3.164076 -31.951736
v -5.252960 9.526346 -31.951736
v -32.385535 3.485700 -4.866673
v -32.385542 3.485699 4.866673
v -32.385542 9.231233 4.866673
v -32.385535 9.231233 -4.866673
v -31.579859 9.231233 4.746265
v -31.579859 9.231233 -4.746265
v -31.579859 3.732595 4.746265
v -31.579859 3.732595 -4.746265
v -32.021379 3.567997 4.826537
v -32.021379 9.231233 4.826537
v -32.021374 9.231233 -4.826537
v -32.021374 3.567998 -4.826537
v -31.948837 3.650296 4.786401
v -31.948837 9.231233 4.786401
v -31.948835 9.231233 -4.786401
v -31.948835 3.650297 -4.786401
v -2.992525 -0.444442 32.385605
v 2.992525 -0.444442 32.385605
v 2.992525 10.123814 32.385605
v -2.992525 10.123814 32.385605
v -2.920714 10.123813 31.584612
v 2.920714 10.123813 31.584612
v 2.920714 -0.314416 31.584612
v -2.920714 -0.314416 31.584612
v 2.968588 -0.381987 32.118606
v 2.968588 10.123813 32.118606
v -2.968588 10.123813 32.118606
v -2.968588 -0.381987 32.118606
v 2.944651 -0.358652 31.851608
v 2.944651 10.123813 31.851608
v -2.944651 10.123813 31.851608
v -2.944651 -0.358652 31.851608
vt 0.295225 0.001992
vt 0.434460 0.001992
vt 0.434460 0.520400
vt 0.295225 0.520400
vt 0.441810 0.001992
vt 0.581044 0.001992
vt 0.581044 0.520400
vt 0.441810 0.520400
vt 0.867105 0.498123
vt 0.731314 0.498123
vt 0.731314 0.001992
vt 0.867105 0.001992
vt 0.724998 0.998008
vt 0.589208 0.998008
vt 0.589208 0.501877
vt 0.724998 0.501877
vt 0.115465 0.564183
vt 0.501193 0.564183
vt 0.496423 0.568954
vt 0.120236 0.568954
vt 0.501193 0.949911
vt 0.496423 0.945141
vt 0.115465 0.949911
vt 0.120236 0.945141
vt 0.001873 0.001992
vt 0.141107 0.001992
vt 0.141107 0.520400
vt 0.001873 0.520400
vt 0.148641 0.001992
vt 0.287875 0.001992
vt 0.287875 0.520400
vt 0.148641 0.520400
vt 0.588394 0.001992
vt 0.724185 0.001992
vt 0.724185 0.498124
vt 0.588394 0.498124
vt 0.866557 0.998007
vt 0.730766 0.998007
vt 0.730766 0.501876
vt 0.866557 0.501876
vt 0.001873 0.001992
vt 0.141107 0.001992
vt 0.141107 0.520400
vt 0.001873 0.520400
vt 0.148641 0.001992
vt 0.287875 0.001992
vt 0.287875 0.520400
vt 0.148641 0.520400
vt 0.295225 0.001992
vt 0.434460 0.001992
vt 0.434460 0.520400
vt 0.295225 0.520400
vt 0.441810 0.001992
vt 0.581044 0.001992
vt 0.581044 0.520400
vt 0.441810 0.520400
vt 0.867105 0.498123
vt 0.731314 0.498123
vt 0.731314 0.001992
vt 0.867105 0.001992
vt 0.866557 0.998007
vt 0.730766 0.998007
vt 0.730766 0.501876
vt 0.866557 0.501876
vt 0.724998 0.998008
vt 0.589208 0.998008
vt 0.589208 0.501877
vt 0.724998 0.501877
vt 0.295225 0.001992
vt 0.434460 0.001992
vt 0.434460 0.520400
vt 0.295225 0.520400
vt 0.867105 0.498123
vt 0.731314 0.498123
vt 0.731314 0.001992
vt 0.867105 0.001992
vt 0.485852 0.001992
vt 0.533411 0.001992
vt 0.533411 0.512975
vt 0.485852 0.512975
vt 0.676478 0.001992
vt 0.632363 0.001992
vt 0.632363 0.505549
vt 0.676478 0.505549
vt 0.148641 0.001992
vt 0.287875 0.001992
vt 0.287875 0.520400
vt 0.148641 0.520400
vt 0.866557 0.998007
vt 0.730766 0.998007
vt 0.730766 0.501876
vt 0.866557 0.501876
vt 0.480769 0.333997
vt 0.480769 0.514226
vt 0.342682 0.514226
vt 0.342682 0.333997
vt 0.673663 0.666002
vt 0.673663 0.508051
vt 0.536724 0.508051
vt 0.536724 0.666002
vt 0.441810 0.001992
vt 0.581044 0.001992
vt 0.581044 0.520400
vt 0.441810 0.520400
vt 0.724998 0.998008
vt 0.589208 0.998008
vt 0.589208 0.501877
vt 0.724998 0.501877
vt 0.583765 0.168620
vt 0.583765 0.679603
vt 0.536206 0.679603
vt 0.536206 0.168620
vt 0.586486 0.335248
vt 0.586486 0.838805
vt 0.630602 0.838805
vt 0.630602 0.335248
vt 0.001873 0.001992
vt 0.141107 0.001992
vt 0.141107 0.520400
vt 0.001873 0.520400
vt 0.588394 0.001992
vt 0.724185 0.001992
vt 0.724185 0.498124
vt 0.588394 0.498124
vt 0.335466 0.167369
vt 0.335466 0.347598
vt 0.197380 0.347598
vt 0.197380 0.167369
vt 0.529826 0.332747
vt 0.529826 0.174795
vt 0.392887 0.174795
vt 0.392887 0.332747
vn 0.000000 1.000000 -0.000000
vn 0.000000 1.000000 -0.000000
vn 0.000000 1.000000 -0.000000
vn 0.000000 1.000000 -0.000000
vn 0.000000 1.000000 0.000000
vn 0.000000 1.000000 0.000000
vn 0.000000 1.000000 0.000000
vn 0.000000 1.000000 0.000000
vn 0.000000 1.000000 0.000000
vn 0.000000 1.000000 0.000000
vn 0.000000 1.000000 0.000000
vn 0.000000 1.000000 0.000000
vn 0.000000 1.000000 0.000000
vn 0.000000 1.000000 0.000000
vn 0.000000 1.000000 0.000000
vn 0.000000 1.000000 0.000000
vn 0.000000 0.000000 -1.000000
vn 0.000000 0.000000 -1.000000
vn 0.000000 0.000000 -1.000000
vn 0.000000 0.000000 -1.000000
vn 0.000000 0.000000 1.000000
vn 0.000000 0.000000 1.000000
vn 0.000000 0.000000 1.000000
vn 0.000000 0.000000 1.000000
vn 0.000000 0.000000 1.000000
vn 0.000000 0.000000 1.000000
vn 0.000000 0.000000 -1.000000
vn 0.000000 0.000000 -1.000000
vn 0.000000 0.000000 -1.000000
vn 0.000000 0.000000 -1.000000
vn 0.008556 0.999963 0.000000
vn 0.008556 0.999963 0.000000
vn 0.008556 0.999963 0.000000
vn 0.008556 0.999963 0.000000
vn 0.999987 -0.005085 -0.000000
vn 0.999987 -0.005085 -0.000000
vn 0.999987 -0.005085 -0.000000
vn 0.999987 -0.005085 -0.000000
vn 0.999987 -0.005085 -0.000000
vn 0.999987 -0.005085 -0.000000
vn -0.008556 0.999963 0.000000
vn -0.008556 0.999963 0.000000
vn -0.008556 0.999963 0.000000
vn -0.008556 0.999963 0.000000
vn -1.000000 0.000000 -0.000000
vn -1.000000 0.000000 -0.000000
vn -1.000000 0.000000 -0.000000
vn -1.000000 0.000000 -0.000000
vn 0.176613 0.000000 0.984280
vn 0.000000 0.000000 0.000000
vn 0.176613 0.000000 0.984280
vn 0.176613 0.000000 0.984280
vn -0.000000 -0.002420 0.999997
vn -0.000000 -0.002420 0.999997
vn -0.000000 -0.002420 0.999997
vn -0.000000 -0.002420 0.999997
vn -0.000000 -0.002420 0.999997
vn -0.000000 -0.002420 0.999997
vn -0.000000 0.000000 1.000000
vn -0.000000 0.000000 1.000000
vn -0.000000 0.000000 1.000000
vn -0.000000 0.000000 1.000000
vn 1.000000 0.000718 0.000000
vn 1.000000 0.000718 0.000000
vn 1.000000 0.000718 0.000000
vn 1.000000 0.000718 0.000000
vn 1.000000 0.000718 0.000000
vn 1.000000 0.000718 0.000000
vn -0.000000 0.000000 0.000000
vn -1.000000 0.000000 0.000000
vn -0.000000 0.000000 0.000000
vn -1.000000 0.000000 0.000000
vn -1.000000 0.000000 0.000000
vn -1.000000 0.000000 0.000000
vn -1.000000 0.000000 0.000000
vn -1.000000 0.000000 0.000000
vn 0.999964 0.008494 -0.000000
vn 0.999964 0.008494 -0.000000
vn 0.999964 0.008494 -0.000000
vn 0.999964 0.008494 -0.000000
vn 0.999999 0.000000 0.001216
vn 0.999999 0.000000 0.001216
vn 0.999999 0.000000 0.001216
vn 0.999999 0.000000 0.001216
vn 0.999999 0.000000 -0.001216
vn 0.999999 0.000000 -0.001216
vn 0.999999 0.000000 -0.001216
vn 0.999999 0.000000 -0.001216
vn -1.000000 0.000038 -0.000000
vn -1.000000 0.000038 -0.000000
vn -1.000000 0.000038 -0.000000
vn -1.000000 0.000038 -0.000000
vn -1.000000 0.000038 -0.000000
vn -1.000000 0.000038 -0.000000
vn -1.000000 0.000000 -0.000010
vn -1.000000 0.000000 -0.000010
vn -1.000000 0.000000 -0.000010
vn -1.000000 0.000000 -0.000010
vn -1.000000 -0.000067 -0.000000
vn -1.000000 -0.000067 -0.000000
vn -1.000000 -0.000067 -0.000000
vn -1.000000 -0.000067 -0.000000
vn -1.000000 0.000000 0.000009
vn -1.000000 0.000000 0.000009
vn -1.000000 0.000000 0.000009
vn -1.000000 0.000000 0.000009
vn 0.354541 0.935040 0.000000
vn 0.354541 0.935040 0.000000
vn 0.230094 0.973168 0.000000
vn 0.230094 0.973168 0.000000
vn 0.356466 0.000000 0.934308
vn 0.181539 0.000000 0.983384
vn 0.115095 0.000000 0.993354
vn 0.115095 0.000000 0.993354
vn -0.000002 -1.000000 0.000000
vn -0.000002 -1.000000 0.000000
vn -0.000003 -1.000000 0.000000
vn -0.000003 -1.000000 0.000000
vn 0.181540 0.000000 -0.983384
vn 0.356467 0.000000 -0.934308
vn 0.115095 0.000000 -0.993354
vn 0.115095 0.000000 -0.993354
vn 0.252700 0.967545 0.000000
vn 0.252700 0.967545 0.000000
vn 0.372570 0.928004 0.000000
vn 0.372570 0.928004 0.000000
vn 0.126953 0.000000 0.991909
vn 0.126953 0.000000 0.991909
vn 0.194178 0.000000 0.980966
vn 0.128581 0.000000 0.991699
vn 0.000003 -1.000000 0.000000
vn 0.000003 -1.000000 0.000000
vn 0.000002 -1.000000 0.000000
vn 0.000002 -1.000000 0.000000
vn 0.126953 0.000000 -0.991909
vn 0.126953 0.000000 -0.991909
vn 0.128582 0.000000 -0.991699
vn 0.194178 0.000000 -0.980966
vn 0.000000 -0.002669 -0.999996
vn 0.000000 -0.002669 -0.999996
vn 0.000000 -0.002669 -0.999996
vn 0.000000 -0.002669 -0.999996
vn 0.000000 -0.002669 -0.999996
vn 0.000000 -0.002669 -0.999996
vn -0.000617 0.000000 -1.000000
vn -0.000617 0.000000 -1.000000
vn -0.000617 0.000000 -1.000000
vn -0.000617 0.000000 -1.000000
vn 0.000000 0.004803 -0.999989
vn 0.000000 0.004803 -0.999989
vn 0.000000 0.004803 -0.999988
vn 0.000000 0.004803 -0.999988
vn 0.000617 0.000000 -1.000000
vn 0.000617 0.000000 -1.000000
vn 0.000617 0.000000 -1.000000
vn 0.000617 0.000000 -1.000000
vn 0.000574 0.000000 1.000000
vn 0.000574 0.000000 1.000000
vn 0.000574 0.000000 1.000000
vn 0.000574 0.000000 1.000000
vn 0.000000 0.004614 0.999989
vn 0.000000 0.004614 0.999989
vn 0.000000 0.004614 0.999989
vn 0.000000 0.004614 0.999989
vn -0.000574 0.000000 1.000000
vn -0.000574 0.000000 1.000000
vn -0.000574 0.000000 1.000000
vn -0.000574 0.000000 1.000000
vn -0.978384 0.000000 -0.206795
vn -0.879847 0.000000 -0.475257
vn -0.992265 0.000000 -0.124140
vn -0.992265 0.000000 -0.124140
vn -0.000000 0.910680 -0.413112
vn -0.000000 0.910680 -0.413113
vn -0.000000 0.966264 -0.257555
vn -0.000000 0.966264 -0.257555
vn 0.879840 0.000000 -0.475269
vn 0.978379 0.000000 -0.206820
vn 0.992264 0.000000 -0.124146
vn 0.992264 0.000000 -0.124146
vn 0.000000 -1.000000 0.000006
vn 0.000000 -1.000000 0.000006
vn 0.000000 -1.000000 0.000004
vn 0.000000 -1.000000 0.000004
vn -0.992196 0.000000 -0.124685
vn -0.992196 0.000000 -0.124685
vn -0.992034 0.000000 -0.125973
vn -0.978632 0.000000 -0.205620
vn 0.000000 0.965979 -0.258620
vn 0.000000 0.965979 -0.258620
vn 0.000000 0.913821 -0.406116
vn 0.000000 0.913821 -0.406117
vn 0.992196 0.000000 -0.124690
vn 0.992196 0.000000 -0.124690
vn 0.978633 0.000000 -0.205613
vn 0.992033 0.000000 -0.125978
vn 0.000000 -1.000000 0.000006
vn 0.000000 -1.000000 0.000006
vn 0.000000 -1.000000 0.000007
vn 0.000000 -1.000000 0.000007
vn -1.000000 0.000013 -0.000000
vn -1.000000 0.000013 -0.000000
vn -1.000000 0.000013 -0.000000
vn -1.000000 0.000013 -0.000000
vn -1.000000 0.000000 -0.000002
vn -1.000000 0.000000 -0.000002
vn -1.000000 0.000000 -0.000002
vn -1.000000 0.000000 -0.000002
vn -1.000000 -0.000011 -0.000000
vn -1.000000 -0.000011 -0.000000
vn -1.000000 -0.000011 -0.000000
vn -1.000000 -0.000011 -0.000000
vn -1.000000 -0.000011 -0.000000
vn -1.000000 -0.000011 -0.000000
vn -1.000000 0.000000 0.000002
vn -1.000000 0.000000 0.000002
vn -1.000000 0.000000 0.000002
vn -1.000000 0.000000 0.000002
vn 1.000000 0.000000 0.000177
vn 1.000000 0.000000 0.000177
vn 1.000000 0.000000 0.000177
vn 1.000000 0.000000 0.000177
vn 0.999999 -0.001266 0.000000
vn 0.999999 -0.001266 0.000000
vn 0.999999 -0.001266 0.000000
vn 0.999999 -0.001266 0.000000
vn 1.000000 0.000000 -0.000177
vn 1.000000 0.000000 -0.000177
vn 1.000000 0.000000 -0.000177
vn 1.000000 0.000000 -0.000177
vn -0.404827 0.000000 -0.914393
vn -0.179737 0.000000 -0.983715
vn -0.108139 0.000000 -0.994136
vn -0.108139 0.000000 -0.994136
vn 0.000000 -1.000000 0.000000
vn 0.000000 -1.000000 0.000000
vn 0.000000 -1.000000 0.000000
vn 0.000000 -1.000000 0.000000
vn -0.179739 0.000000 0.983714
vn -0.404839 0.000000 0.914388
vn -0.108138 0.000000 0.994136
vn -0.108138 0.000000 0.994136
vn -0.353121 0.935578 -0.000000
vn -0.353122 0.935578 -0.000000
vn -0.217695 0.976017 0.000000
vn -0.217695 0.976017 0.000000
vn -0.109551 0.000000 -0.993981
vn -0.109551 0.000000 -0.993981
vn -0.179939 0.000000 -0.983678
vn -0.110892 0.000000 -0.993833
vn 0.000000 -1.000000 0.000000
vn 0.000000 -1.000000 0.000000
vn 0.000000 -1.000000 0.000000
vn 0.000000 -1.000000 0.000000
vn -0.109552 0.000000 0.993981
vn -0.109552 0.000000 0.993981
vn -0.110893 0.000000 0.993832
vn -0.179942 0.000000 0.983677
vn -0.220436 0.975401 -0.000000
vn -0.220436 0.975401 -0.000000
vn -0.348958 0.937138 -0.000000
vn -0.348958 0.937138 -0.000000
vn 0.000000 0.000000 1.000000
vn 0.000000 0.000000 1.000000
vn 0.000000 0.000000 1.000000
vn 0.000000 0.000000 1.000000
vn 0.000000 0.000000 1.000000
vn 0.000000 0.000000 1.000000
vn 0.000000 0.000000 1.000000
vn 0.000000 0.000000 1.000000
vn -0.000000 0.000000 1.000000
vn -0.000000 0.000000 1.000000
vn -0.000000 0.000000 1.000000
vn -0.000000 0.000000 1.000000
vn 0.000000 0.000000 -1.000000
vn 0.000000 0.000000 -1.000000
vn 0.000000 0.000000 -1.000000
vn 0.000000 0.000000 -1.000000
vn -0.000000 0.000000 -1.000000
vn -0.000000 0.000000 -1.000000
vn -0.000000 0.000000 -1.000000
vn -0.000000 0.000000 -1.000000
vn 0.000000 0.000000 1.000000
vn 0.000000 0.000000 1.000000
vn 0.000000 0.000000 1.000000
vn 0.000000 0.000000 1.000000
vn 0.000000 0.000000 -1.000000
vn 0.000000 0.000000 -1.000000
vn 0.000000 0.000000 -1.000000
vn 0.000000 0.000000 -1.000000
vn -0.996005 0.000000 0.089293
vn -0.996005 0.000000 0.089293
vn -0.996005 0.000000 0.089294
vn -0.996005 0.000000 0.089294
vn 0.000000 -1.000000 -0.000001
vn 0.000000 -1.000000 -0.000001
vn 0.000000 -1.000000 0.000000
vn 0.000000 -1.000000 0.000000
vn 0.996005 0.000000 0.089294
vn 0.996005 0.000000 0.089293
vn 0.996005 0.000000 0.089294
vn 0.996005 0.000000 0.089294
vn 0.000000 0.992209 0.124587
vn 0.000000 0.992209 0.124587
vn 0.000000 0.986552 0.163450
vn 0.000000 0.986552 0.163450
vn -0.996005 0.000000 0.089294
vn -0.996005 0.000000 0.089294
vn -0.996005 0.000000 0.089294
vn -0.996005 0.000000 0.089294
vn 0.000000 -1.000000 0.000002
vn 0.000000 -1.000000 0.000002
vn 0.000000 -1.000000 0.000000
vn 0.000000 -1.000000 0.000000
vn 0.996005 0.000000 0.089295
vn 0.996005 0.000000 0.089295
vn 0.996005 0.000000 0.089295
vn 0.996005 0.000000 0.089294
vn 0.000000 0.973716 0.227767
vn 0.000000 0.973716 0.227767
vn 0.000000 0.987078 0.160241
vn 0.000000 0.987078 0.160241
s off
g pCube1
usemtl lambert3SG
f 3/17/1 4/18/2 10/19/3 9/20/4
f 4/18/5 6/21/6 11/22/7 10/19/8
f 6/21/9 5/23/10 12/24/11 11/22/12
f 5/23/13 3/17/14 9/20/15 12/24/16
f 1/25/17 2/26/18 18/42/19 17/41/20
f 19/43/21 4/27/22 3/28/23 20/44/24 84/120/25 83/119/26
f 8/31/27 7/32/28 24/48/29 23/47/30
f 2/1/31 8/2/32 23/50/33 18/49/34
f 22/51/35 6/3/36 4/4/37 19/52/38 36/72/39 35/71/40
f 7/5/41 1/6/42 17/54/43 24/53/44
f 15/11/45 14/12/46 28/60/47 27/59/48
f 14/12/49 10/9/50 25/57/51 28/60/52
f 26/61/53 11/37/54 12/38/55 29/62/56 53/90/57 54/89/58
f 16/39/59 15/40/60 27/64/61 30/63/62
f 29/65/63 12/13/64 9/14/65 31/66/66 69/106/67 70/105/68
f 9/14/69 13/15/70 32/67/71 31/66/72
f 13/15/73 16/16/74 30/68/75 32/67/76
f 18/49/77 23/50/78 33/70/79 34/69/80
f 23/50/81 22/51/82 35/71/83 33/70/84
f 19/52/85 18/49/86 34/69/87 36/72/88
f 26/58/89 38/74/90 37/73/91 25/57/92 10/9/93 11/10/94
f 26/58/95 27/59/96 39/75/97 38/74/98
f 27/59/99 28/60/100 40/76/101 39/75/102
f 28/60/103 25/57/104 37/73/105 40/76/106
s 1
f 45/81/107 46/82/108 39/75/109 40/76/110
s 2
f 46/82/111 47/83/112 38/74/113 39/75/114
s 3
f 47/83/115 48/84/116 37/73/117 38/74/118
s 4
f 48/84/119 45/81/120 40/76/121 37/73/122
s 1
f 34/69/123 33/70/124 42/78/125 41/77/126
s 2
f 33/70/127 35/71/128 43/79/129 42/78/130
s 3
f 35/71/131 36/72/132 44/80/133 43/79/134
s 4
f 36/72/135 34/69/136 41/77/137 44/80/138
s 1
f 41/77/126 42/78/125 46/82/108 45/81/107
s 2
f 42/78/130 43/79/129 47/83/112 46/82/111
s 3
f 43/79/134 44/80/133 48/84/116 47/83/115
s 4
f 44/80/138 41/77/137 45/81/120 48/84/119
s off
f 22/46/139 50/86/140 49/85/141 21/45/142 5/29/143 6/30/144
f 22/46/145 23/47/146 51/87/147 50/86/148
f 23/47/149 24/48/150 52/88/151 51/87/152
f 24/48/153 21/45/154 49/85/155 52/88/156
f 29/62/157 30/63/158 55/91/159 53/90/160
f 30/63/161 27/64/162 56/92/163 55/91/164
f 27/64/165 26/61/166 54/89/167 56/92/168
s 5
f 61/97/169 62/98/170 56/92/171 54/89/172
s 6
f 62/98/173 63/99/174 55/91/175 56/92/176
s 7
f 63/99/177 64/100/178 53/90/179 55/91/180
s 8
f 64/100/181 61/97/182 54/89/183 53/90/184
s 5
f 50/86/185 51/87/186 58/94/187 57/93/188
s 6
f 51/87/189 52/88/190 59/95/191 58/94/192
s 7
f 52/88/193 49/85/194 60/96/195 59/95/196
s 8
f 49/85/197 50/86/198 57/93/199 60/96/200
s 5
f 57/93/188 58/94/187 62/98/170 61/97/169
s 6
f 58/94/192 59/95/191 63/99/174 62/98/173
s 7
f 59/95/196 60/96/195 64/100/178 63/99/177
s 8
f 60/96/200 57/93/199 61/97/182 64/100/181
s off
f 24/53/201 17/54/202 66/102/203 65/101/204
f 17/54/205 20/55/206 67/103/207 66/102/208
f 21/56/209 68/104/210 67/103/211 20/55/212 3/7/213 5/8/214
f 21/56/215 24/53/216 65/101/217 68/104/218
f 31/66/219 32/67/220 71/107/221 69/106/222
f 32/67/223 30/68/224 72/108/225 71/107/226
f 30/68/227 29/65/228 70/105/229 72/108/230
s 9
f 77/113/231 78/114/232 69/106/233 71/107/234
s 10
f 78/114/235 79/115/236 70/105/237 69/106/238
s 11
f 79/115/239 80/116/240 72/108/241 70/105/242
s 12
f 80/116/243 77/113/244 71/107/245 72/108/246
s 9
f 66/102/247 67/103/248 74/110/249 73/109/250
s 10
f 67/103/251 68/104/252 75/111/253 74/110/254
s 11
f 68/104/255 65/101/256 76/112/257 75/111/258
s 12
f 65/101/259 66/102/260 73/109/261 76/112/262
s 9
f 73/109/250 74/110/249 78/114/232 77/113/231
s 10
f 74/110/254 75/111/253 79/115/236 78/114/235
s 11
f 75/111/258 76/112/257 80/116/240 79/115/239
s 12
f 76/112/262 73/109/261 77/113/244 80/116/243
s off
f 17/41/263 18/42/264 82/118/265 81/117/266
f 18/42/267 19/43/268 83/119/269 82/118/270
f 20/44/271 17/41/272 81/117/273 84/120/274
f 9/33/275 10/34/276 86/122/277 85/121/278
f 10/34/279 14/35/280 87/123/281 86/122/282
f 14/35/283 13/36/284 88/124/285 87/123/286
f 13/36/287 9/33/288 85/121/289 88/124/290
s 13
f 93/129/291 94/130/292 86/122/293 87/123/294
s 14
f 94/130/295 95/131/296 85/121/297 86/122/298
s 15
f 95/131/299 96/132/300 88/124/301 85/121/302
s 16
f 96/132/303 93/129/304 87/123/305 88/124/306
s 13
f 82/118/307 83/119/308 90/126/309 89/125/310
s 14
f 83/119/311 84/120/312 91/127/313 90/126/314
s 15
f 84/120/315 81/117/316 92/128/317 91/127/318
s 16
f 81/117/319 82/118/320 89/125/321 92/128/322
s 13
f 89/125/310 90/126/309 94/130/292 93/129/291
s 14
f 90/126/314 91/127/313 95/131/296 94/130/295
s 15
f 91/127/318 92/128/317 96/132/300 95/131/299
s 16
f 92/128/322 89/125/321 93/129/304 96/132/303
